SplineFontDB: 3.2
FontName: UFSteleto
FullName: UF Steleto
FamilyName: UF Steleto
Weight: Regular
Copyright: Copyright (c) 2021 ura
UComments: "Created with FontForge (http://fontforge.org)"
Version: 1.000
ItalicAngle: 0
UnderlinePosition: -102
UnderlineWidth: 51
Ascent: 819
Descent: 205
InvalidEm: 0
LayerCount: 2
Layer: 0 0 "+gMyXYgAA" 1
Layer: 1 0 "+Uk2XYgAA" 0
XUID: [1021 441 -436763822 5018]
StyleMap: 0x0000
FSType: 0
OS2Version: 0
OS2_WeightWidthSlopeOnly: 0
OS2_UseTypoMetrics: 1
CreationTime: 1638943778
ModificationTime: 1639472797
OS2TypoAscent: 0
OS2TypoAOffset: 1
OS2TypoDescent: 0
OS2TypoDOffset: 1
OS2TypoLinegap: 92
OS2WinAscent: 0
OS2WinAOffset: 1
OS2WinDescent: 0
OS2WinDOffset: 1
HheadAscent: 0
HheadAOffset: 1
HheadDescent: 0
HheadDOffset: 1
OS2Vendor: 'PfEd'
MarkAttachClasses: 1
DEI: 91125

StartChar: A
Encoding: 65 65 0
Width: 768
Flags: HW
LayerCount: 2
Back
Fore
SplineSet
480.699731512 472.883911575 m 0
 480.699731512 510.866107498 482.565846142 548.900125356 482.565846142 584.350582547 c 0
 482.565846142 599.581216011 481.747154649 619.978157842 480.581483874 627.819360554 c 0
 480.051345101 631.385483745 479.409523786 633.757139321 478.980914063 635.082137647 c 0
 475.350162557 635.852092348 465.993942306 637.049692121 450.483757959 637.049692121 c 0
 425.625364121 637.049692121 321.495043447 629.724756105 295.880032611 623.608188709 c 0
 276.18669725 618.905485989 255.618200923 613.783935839 236.630244596 610.520820381 c 0
 210.396255542 606.011853512 188.514383297 599.354158806 173.123289104 590.479595815 c 0
 164.5685308 585.546889895 158.03091179 580.105020539 152.873368186 573.817332276 c 0
 146.542049396 566.098665815 141.441475593 556.635634224 138.941849099 542.656395671 c 2
 126.226757476 471.546852131 l 2
 118.010291611 405.06817377 104.641885336 339.117693762 101.460968903 272.310371232 c 2
 96.4698758276 167.484742525 l 1
 101.469875828 44.484742525 l 2
 101.489893828 43.9922997082 101.5 43.4973207523 101.5 43 c 0
 101.5 23.13106 85.36894 7 65.5 7 c 0
 46.1283807523 7 30.3098645826 22.3336433855 29.5301241724 41.515257475 c 2
 24.5301241724 164.515257475 l 2
 24.5101061717 165.007700292 24.5 165.502679248 24.5 166 c 0
 24.5 166.566342182 24.5131060352 167.129647441 24.5390310966 167.689628768 c 2
 29.5390310966 275.689628768 l 2
 29.5822889342 276.62399806 29.6612366495 277.549113082 29.7745409348 278.463640528 c 0
 38.1150368082 345.783349694 46.4495885898 413.10722058 54.7732425244 480.453147869 c 0
 54.8517762035 481.088556727 54.9468946888 481.718857907 55.0581509009 482.343604329 c 2
 68.1452877896 555.832911473 l 2
 72.8696694387 580.382891457 82.845139284 601.954861612 97.1816816695 619.432893055 c 0
 108.617431112 633.374496473 122.439518659 644.36802399 137.235335724 652.899347944 c 0
 163.875277197 668.260038725 193.714855569 676.21036871 224.369755404 681.479179619 c 0
 239.270274504 684.03986142 260.441915654 689.183508035 279.119967389 693.643764416 c 0
 315.309359301 702.285371325 413.51762352 709.049692121 450.483757959 709.049692121 c 0
 483.736141974 709.049692121 507.930269957 705.934026917 527.180342131 689.080866937 c 0
 539.88208879 677.960671307 546.383137766 663.221480247 549.611649739 649.85884606 c 0
 554.249746917 630.662015933 554.565846142 608.701056857 554.565846142 584.350582547 c 0
 554.565846142 548.384058494 552.699731512 510.308469463 552.699731512 472.883911575 c 0
 552.699731512 378.419298663 569.68034351 283.357024751 574.445909587 195.988313332 c 0
 575.791674042 171.315734119 583.487299694 150.716875466 595.158334527 136.038694416 c 0
 609.420081803 118.102280757 630.935237247 106 664.5 106 c 0
 676.600158625 106 692.848700758 109 707.5 109 c 0
 727.36894 109 743.5 92.86894 743.5 73 c 0
 743.5 53.13106 727.36894 37 707.5 37 c 0
 695.128258133 37 678.824530835 34 664.5 34 c 0
 611.534814837 34 567.229175527 55.4938805087 538.774471543 91.2801927578 c 0
 516.272345367 119.580192435 504.581589847 154.840515881 502.554090413 192.011686668 c 0
 501.161450426 217.543419764 497.613763074 251.635722352 493.717190101 288.773848523 c 0
 487.603639694 347.041923554 480.699731512 408.662324573 480.699731512 472.883911575 c 0
234.478671499 352.279151846 m 0
 234.478671499 363.020033608 236.579488922 367.442830852 237.596904607 368.979634269 c 0
 238.244322588 369.957557236 242.372542016 374.87955 255.516862363 377.056576902 c 0
 262.670492829 378.111574748 285.385910473 379.185233139 307.585957774 379.185233139 c 0
 328.553614858 379.185233139 350.624873587 378.405687405 362.881340768 377.179965834 c 0
 373.296123951 376.138487515 379.465046587 373.677580289 381.778204947 371.981676486 c 0
 383.380816954 370.806713351 388.5 368.073769663 388.5 347 c 0
 388.5 332.818273828 385.194206773 330.684762674 383.41284366 329.039283268 c 0
 380.706423297 326.539310668 370.614345078 322.289764474 364.51936948 319.262276029 c 0
 356.495895105 315.276766343 353.687968277 312.786897757 349.444699115 312.242268226 c 0
 345.938140228 311.792196489 335.689885189 309.711801031 324.700166151 307.798050422 c 0
 313.40715206 305.944033408 276.640443747 301.576121591 267.722083365 300.894198628 c 0
 265.560313209 300.728903591 263.451701788 300.372324528 261.413160771 299.84137311 c 0
 256.409955494 305.328098255 251.705600898 311.108871097 247.746349165 316.935135685 c 0
 238.464133544 330.594445026 234.478671499 341.992292674 234.478671499 352.279151846 c 0
298.016814062 231.542398143 m 1
 314.72163276 233.413998404 333.61483546 235.900741399 342.400668818 237.871228818 c 0
 352.202705929 240.069470717 355.375465634 240.406044875 358.685218034 240.830856224 c 0
 373.473946848 242.729010248 381.961156111 247.525448691 396.48063052 254.737723971 c 0
 407.49770908 260.210113072 424.930340583 264.98180179 441.470479878 286.162226784 c 0
 453.450777225 301.503560061 460.5 322.393457796 460.5 347 c 0
 460.5 382.592897004 448.335232429 412.452545908 424.286266932 430.084167135 c 0
 406.07816329 443.433530822 386.370542715 447.194845818 370.118659232 448.820034166 c 0
 353.312528675 450.500749861 330.359936228 451.185233139 307.585957774 451.185233139 c 0
 292.435515245 451.185233139 277.617790415 450.857787981 265.148927684 450.14538717 c 0
 254.974545669 449.564080106 247.113155018 449.040341323 238.591188199 447.126943875 c 0
 215.08690926 441.849356469 191.988240222 430.509408716 177.517932024 408.652050495 c 0
 166.213313179 391.576456785 162.478671499 371.973631944 162.478671499 352.279151846 c 0
 162.478671499 321.72762556 174.15629675 297.135668831 188.153288609 276.538297529 c 0
 205.118288503 251.573333237 226.292283684 232.130473812 243.181027156 218.760244243 c 0
 249.317817238 213.901961426 257.072688198 211 265.5 211 c 0
 279.837579928 211 292.228779727 219.399727826 298.016814062 231.542398143 c 1
EndSplineSet
EndChar

StartChar: B
Encoding: 66 66 1
Width: 672
Flags: HW
LayerCount: 2
Back
Fore
SplineSet
284.389648438 202 m 0
 284.389648438 221.869140625 300.520507812 238 320.389648438 238 c 0
 340.258789062 238 356.389648438 221.869140625 356.389648438 202 c 0
 356.389648438 182.130859375 340.258789062 166 320.389648438 166 c 0
 300.520507812 166 284.389648438 182.130859375 284.389648438 202 c 0
192.556640625 20.9375 m 0
 199.100585938 14.193359375 208.259765625 10 218.389648438 10 c 0
 218.9453125 10 219.499023438 10.0126953125 220.048828125 10.0380859375 c 2
 264.048828125 12.0380859375 l 2
 264.748046875 12.0693359375 265.442382812 12.12109375 266.130859375 12.1923828125 c 2
 324.130859375 18.1923828125 l 2
 324.5625 18.2373046875 324.991210938 18.2890625 325.41796875 18.3486328125 c 2
 373.142578125 25.103515625 l 1
 439.142578125 30.103515625 l 2
 444.706054688 30.525390625 449.91796875 32.2138671875 454.490234375 34.880859375 c 2
 502.490234375 62.880859375 l 2
 517.560546875 69.4580078125 541.677734375 81.326171875 554.75 90.314453125 c 0
 571.041992188 101.514648438 581.033203125 115.1171875 588.60546875 124.612304688 c 0
 593.186523438 130.356445312 596.977539062 134.771484375 598.080078125 135.810546875 c 0
 614.372070312 151.176757812 628.254882812 162.768554688 637.579101562 183.323242188 c 0
 644.921875 199.508789062 646.40625 215.420898438 647.34375 234.17578125 c 0
 647.66796875 240.649414062 647.881835938 247.096679688 647.881835938 253.583984375 c 0
 647.881835938 277.3046875 644.946289062 302.37890625 632.34375 326.586914062 c 0
 626.419921875 337.965820312 619.021484375 345.33984375 611.963867188 351.920898438 c 0
 600.578125 362.538085938 590.844726562 369.302734375 580.55859375 377.358398438 c 0
 532.903320312 414.67578125 483.491210938 425.787109375 431.255859375 442.328125 c 0
 413.409179688 447.979492188 394.356445312 452.431640625 374.817382812 455.44921875 c 1
 396.185546875 476.721679688 418.23828125 501.268554688 439.08203125 521.764648438 c 0
 447.088867188 529.63671875 461.345703125 544.26171875 467.373046875 559.06640625 c 0
 469.505859375 564.301757812 471.430664062 570.794921875 471.430664062 579.022460938 c 0
 471.430664062 592.294921875 467.811523438 604.168945312 462.465820312 614.118164062 c 0
 454.700195312 628.572265625 447.576171875 633.336914062 440.470703125 640.8046875 c 0
 424.8828125 657.188476562 402.94140625 671.504882812 386.797851562 685.341796875 c 0
 384.21484375 687.556640625 381.495117188 689.944335938 378.639648438 692.454101562 c 0
 360.65234375 708.255859375 336.219726562 731.66796875 299.739257812 739.248046875 c 0
 296.067382812 740.010742188 292.189453125 740.450195312 288.278320312 740.450195312 c 0
 276.631835938 740.450195312 268.405273438 736.486328125 265.622070312 735.36328125 c 0
 249.25 732.244140625 236.793945312 718.021484375 236.399414062 700.841796875 c 2
 232.399414062 526.841796875 l 2
 232.392578125 526.561523438 232.389648438 526.28125 232.389648438 526 c 0
 232.389648438 525.03515625 232.427734375 524.079101562 232.501953125 523.1328125 c 2
 238.352539062 449.036132812 l 1
 230.9609375 446.646484375 223.76171875 443.8046875 216.806640625 440.45703125 c 0
 189.765625 427.438476562 162.627929688 416.147460938 137.745117188 395.979492188 c 0
 116.637695312 378.87109375 97.9189453125 359.81640625 79.369140625 341.874023438 c 0
 67.3173828125 330.216796875 56.4677734375 326.686523438 43.3525390625 310.1015625 c 0
 36.564453125 301.517578125 31.0537109375 290.706054688 27.701171875 278.65625 c 0
 25.5986328125 271.094726562 25.3408203125 266.012695312 24.88671875 259.651367188 c 0
 24.3359375 251.94140625 24.1181640625 243.458984375 24.1181640625 235.17578125 c 0
 24.1181640625 222.745117188 24.193359375 212.744140625 25.9228515625 202.798828125 c 0
 28.8330078125 186.06640625 36.453125 172.500976562 44.736328125 160.70703125 c 0
 57.443359375 142.61328125 73.607421875 126.314453125 88.8486328125 109.6875 c 0
 111.755859375 84.697265625 125.654296875 73.2587890625 148.365234375 54.3330078125 c 0
 158.044921875 45.693359375 171.975585938 31.8330078125 186.325195312 24.0771484375 c 0
 188.073242188 23.1328125 190.021484375 21.9833984375 192.556640625 20.9375 c 0
425.41015625 101.272460938 m 1
 367.63671875 96.896484375 l 2
 366.872070312 96.837890625 366.11328125 96.7568359375 365.361328125 96.6513671875 c 2
 316.6484375 89.8076171875 l 1
 260.73046875 83.9619140625 l 1
 235.935546875 82.8349609375 l 1
 230.661132812 86.7841796875 224.26953125 89.3203125 217.323242188 89.8818359375 c 0
 212.923828125 93.416015625 205.208984375 99.921875 200.455078125 104.271484375 c 0
 197.251953125 107.202148438 193.985351562 110.024414062 190.620117188 112.826171875 c 0
 168.998046875 130.828125 161.827148438 136.607421875 141.930664062 158.3125 c 0
 129.189453125 172.211914062 110.860351562 191.819335938 103.697265625 202.01953125 c 0
 98.69921875 209.135742188 97.0732421875 213.723632812 96.8544921875 215.249023438 c 0
 96.5537109375 217.346679688 96.1181640625 226.42578125 96.1181640625 235.17578125 c 0
 96.1181640625 245.8984375 97.0244140625 258.7421875 97.3017578125 260.251953125 c 0
 98.298828125 263.575195312 99.0732421875 264.50390625 99.85546875 265.493164062 c 0
 100.928710938 266.849609375 103.58203125 269.235351562 110.108398438 274.12109375 c 0
 115.104492188 277.861328125 122.015625 282.973632812 129.41015625 290.125976562 c 0
 146.627929688 306.779296875 166.549804688 326.66015625 183.034179688 340.020507812 c 0
 196.2734375 350.752929688 224.265625 364.129882812 247.97265625 375.54296875 c 0
 263.979492188 383.249023438 289.073242188 387.970703125 316.952148438 387.970703125 c 0
 347.798828125 387.970703125 381.635742188 382.502929688 409.5234375 373.671875 c 0
 416.399414062 371.494140625 423.13671875 369.419921875 429.717773438 367.393554688 c 0
 473.13671875 354.024414062 508.271484375 342.529296875 536.220703125 320.641601562 c 0
 544.791992188 313.930664062 556.02734375 305.654296875 562.8828125 299.260742188 c 0
 565.903320312 296.444335938 567.827148438 294.18359375 568.435546875 293.413085938 c 0
 573.677734375 283.34375 575.881835938 271.635742188 575.881835938 253.583984375 c 0
 575.881835938 248.731445312 575.717773438 243.473632812 575.435546875 237.82421875 c 0
 574.594726562 221.0234375 572.9375 215.1328125 571.973632812 213.0078125 c 0
 570.915039062 210.674804688 566.34765625 204.8359375 548.69921875 188.189453125 c 0
 537.26953125 177.408203125 523.481445312 156.18359375 514.029296875 149.685546875 c 0
 513.278320312 149.169921875 504.595703125 144.118164062 496.322265625 139.77734375 c 0
 485.967773438 134.344726562 473.09765625 128.239257812 471.396484375 127.580078125 c 0
 469.622070312 126.891601562 467.915039062 126.067382812 466.2890625 125.119140625 c 2
 425.41015625 101.272460938 l 1
324.219726562 506.651367188 m 1
 306.481445312 499.39453125 l 1
 304.379882812 525.158203125 l 1
 307.423828125 657.552734375 l 1
 314.564453125 652.513671875 322.434570312 646.009765625 331.15234375 638.350585938 c 0
 340.150390625 630.4453125 348.3203125 623.787109375 358.528320312 615.888671875 c 0
 370.469726562 606.6484375 383.922851562 595.8046875 388.30859375 591.1953125 c 0
 390.37890625 589.01953125 392.232421875 587.1875 393.755859375 585.677734375 c 0
 395.301757812 584.145507812 396.390625 583.032226562 397.157226562 582.2265625 c 0
 393.823242188 578.547851562 389.028320312 573.540039062 385.938476562 570.451171875 c 0
 366.125976562 550.637695312 344.064453125 526.391601562 324.219726562 506.651367188 c 1
EndSplineSet
EndChar

StartChar: O
Encoding: 79 79 2
Width: 616
Flags: HW
LayerCount: 2
Back
Fore
SplineSet
283.5 358 m 0
 283.5 377.869140625 299.630859375 394 319.5 394 c 0
 336.943359375 394 351.504882812 381.567382812 354.80078125 365.087890625 c 0
 355.551757812 361.3359375 356.5 357.36328125 356.5 353 c 0
 356.5 333.130859375 340.369140625 317 320.5 317 c 0
 303.056640625 317 288.495117188 329.432617188 285.19921875 345.912109375 c 0
 284.448242188 349.6640625 283.5 353.63671875 283.5 358 c 0
449.5 158 m 0
 469.369140625 158 485.5 141.869140625 485.5 122 c 0
 485.5 113.17578125 482.318359375 105.08984375 477.041015625 98.826171875 c 0
 452.061523438 69.17578125 415.129882812 37.322265625 377.875 23.765625 c 0
 354.731445312 15.34375 332.140625 13.5322265625 303.419921875 13.5322265625 c 0
 263.436523438 13.5322265625 224.01953125 18.7783203125 189.461914062 38.8447265625 c 0
 160.6328125 55.583984375 134.877929688 75.0849609375 111.06640625 95.8515625 c 0
 69.115234375 129.33984375 40.505859375 178.915039062 35.6279296875 236.94921875 c 0
 34.330078125 252.3828125 33.7685546875 267.165039062 33.7685546875 281.333007812 c 0
 33.7685546875 326.85546875 39.5615234375 365.833984375 44.9482421875 399.69140625 c 0
 47.783203125 417.513671875 55.3427734375 435.553710938 59.9697265625 451.20703125 c 0
 67.818359375 477.764648438 80.1708984375 501.89453125 100.060546875 525.294921875 c 0
 118.029296875 546.435546875 133.060546875 565.047851562 155.713867188 585.013671875 c 0
 185.579101562 611.3359375 201.021484375 622.190429688 236.177734375 642.279296875 c 0
 263.252929688 657.750976562 290.77734375 667.18359375 304.330078125 671.389648438 c 0
 329.90625 679.327148438 351.797851562 681.998046875 369.625976562 681.998046875 c 0
 389.1796875 681.998046875 402.7421875 678.87890625 410.568359375 677.202148438 c 0
 431.200195312 672.780273438 448.48046875 665.572265625 462.837890625 656.622070312 c 0
 486.93359375 641.6015625 498.712890625 626.349609375 515.809570312 610.076171875 c 0
 528.862304688 597.65234375 537.130859375 586.868164062 545.853515625 575.440429688 c 0
 552.942382812 566.154296875 561.045898438 555.522460938 574.85546875 539.393554688 c 0
 580.244140625 533.099609375 583.5 524.926757812 583.5 516 c 0
 583.5 496.130859375 567.369140625 480 547.5 480 c 0
 536.557617188 480 526.75 484.892578125 520.14453125 492.606445312 c 0
 505.2265625 510.03125 495.717773438 522.473632812 488.588867188 531.813476562 c 0
 479.548828125 543.65625 475.353515625 549.201171875 466.190429688 557.923828125 c 0
 453.032226562 570.448242188 437.348632812 587.669921875 424.825195312 595.4765625 c 0
 417.217773438 600.21875 407.8046875 604.114257812 394.053710938 607.095703125 c 0
 387.811523438 608.44921875 380.907226562 609.998046875 369.625976562 609.998046875 c 0
 359.025390625 609.998046875 344.650390625 608.500976562 325.669921875 602.610351562 c 0
 315.4453125 599.4375 291.341796875 590.874023438 271.822265625 579.720703125 c 0
 236.978515625 559.809570312 232.420898438 556.6640625 203.286132812 530.986328125 c 0
 186.05078125 515.795898438 171.974609375 498.748046875 154.939453125 478.705078125 c 0
 140.829101562 462.10546875 134.70703125 450.000976562 129.030273438 430.79296875 c 0
 126.15625 421.0703125 116.677734375 392.243164062 116.051757812 388.30859375 c 0
 110.760742188 355.053710938 105.768554688 320.627929688 105.768554688 281.333007812 c 0
 105.768554688 269.102539062 106.251953125 256.381835938 107.372070312 243.05078125 c 0
 110.55859375 205.145507812 128.62890625 173.9453125 155.93359375 152.1484375 c 0
 156.368164062 151.801757812 156.794921875 151.444335938 157.212890625 151.078125 c 0
 178.7734375 132.177734375 201.1328125 115.326171875 225.538085938 101.155273438 c 0
 243.59375 90.6708984375 269.75390625 85.5322265625 303.419921875 85.5322265625 c 0
 309.374023438 85.5322265625 315.53515625 85.6826171875 321.877929688 85.9638671875 c 0
 335.451171875 86.5673828125 344.592773438 88.287109375 353.28125 91.44921875 c 0
 364.077148438 95.3779296875 375.7265625 102.276367188 393.036132812 116.125 c 0
 399.625976562 121.396484375 414.838867188 136.723632812 421.958984375 145.173828125 c 0
 428.564453125 153.014648438 438.455078125 158 449.5 158 c 0
EndSplineSet
EndChar

StartChar: N
Encoding: 78 78 3
Width: 872
Flags: HW
LayerCount: 2
Back
Fore
SplineSet
38.5 137 m 0
 38.5 129.764648438 37.5 127.490234375 37.5 119 c 2
 37.5478515625 114.870117188 l 1
 35.5478515625 75.8701171875 l 2
 35.515625 75.2509765625 35.5 74.626953125 35.5 74 c 0
 35.5 66.0947265625 38.0537109375 58.78125 42.3798828125 52.83984375 c 0
 47.8759765625 39.919921875 60.6435546875 30.8017578125 75.5 30.9970703125 c 2
 379.982421875 35.0029296875 l 2
 380.416992188 35.0087890625 380.849609375 35.0224609375 381.279296875 35.04296875 c 2
 461.767578125 39.0009765625 l 1
 735.767578125 41.0009765625 l 2
 740.86328125 41.0380859375 745.708007812 42.1357421875 750.092773438 44.0849609375 c 0
 750.767578125 44.384765625 751.436523438 44.6884765625 752.104492188 45.0029296875 c 0
 759.037109375 45.080078125 765.444335938 46.4599609375 772.002929688 47.279296875 c 0
 789.75 49.498046875 803.5 64.65625 803.5 83 c 0
 803.5 102.869140625 787.369140625 119 767.5 119 c 0
 761.734375 119 756.737304688 117.784179688 751.5 117 c 2
 745.5 117 l 1
 745.5 117 744.690429688 117.083007812 743.291992188 117.083007812 c 0
 739.791015625 117.083007812 732.598632812 116.563476562 725.170898438 112.92578125 c 2
 472.427734375 111.081054688 l 1
 463.71875 141.190429688 452.752929688 157.682617188 444.120117188 187.896484375 c 0
 440.52734375 200.473632812 432.653320312 226.1328125 430.580078125 235.115234375 c 0
 427.278320312 249.420898438 422.754882812 265.3125 415.939453125 282.348632812 c 0
 410.168945312 296.77734375 402.28125 303.905273438 397.142578125 314.190429688 c 0
 390.479492188 328.471679688 382.518554688 350.700195312 375.995117188 367.209960938 c 0
 367.651367188 388.327148438 364.2890625 408.926757812 352.720703125 432.064453125 c 0
 348.502929688 440.499023438 343.358398438 447.499023438 337.515625 454.528320312 c 0
 330.24609375 463.274414062 321.858398438 471.75390625 312.823242188 479.357421875 c 0
 305.579101562 485.453125 298.02734375 491.012695312 289.23046875 495.556640625 c 0
 282.336914062 499.116210938 274.123046875 503 261.5 503 c 0
 230.795898438 503 207.370117188 486.948242188 190.889648438 471.057617188 c 0
 169.916015625 450.833007812 155.83984375 427.033203125 146.522460938 411.340820312 c 0
 113.862304688 356.333984375 101.1640625 319.272460938 77.0556640625 269.15234375 c 0
 72.0498046875 258.74609375 68.0908203125 250.438476562 62.8857421875 236.905273438 c 0
 58.1982421875 224.71875 53.603515625 215.247070312 50.501953125 202.192382812 c 0
 48.9384765625 195.614257812 48.04296875 189.26953125 46.9736328125 180.80859375 c 0
 45.1328125 172.348632812 40.9326171875 154.997070312 39.3173828125 145.512695312 c 0
 38.9619140625 143.428710938 38.5 142.630859375 38.5 137 c 0
258.081054688 430.486328125 m 0
 262.680664062 427.556640625 271.065429688 420.668945312 277.579101562 413.694335938 c 0
 283.26171875 407.610351562 287.727539062 401.040039062 288.279296875 399.935546875 c 0
 296.111328125 384.272460938 301.604492188 359.51953125 309.004882812 340.790039062 c 0
 316.2578125 322.434570312 323.081054688 302.618164062 331.857421875 283.809570312 c 0
 335.717773438 275.53515625 339.814453125 269.891601562 343.188476562 264.856445312 c 0
 346.48828125 259.932617188 349.055664062 255.63671875 349.18359375 255.362304688 c 0
 354.305664062 242.5078125 357.741210938 230.4921875 360.419921875 218.884765625 c 0
 363.65234375 204.877929688 370.543945312 183.27734375 374.879882812 168.103515625 c 0
 380.40625 148.76171875 386.623046875 133.986328125 391.784179688 121.700195312 c 0
 393.84765625 116.787109375 395.7265625 112.30078125 397.448242188 107.901367188 c 1
 379.017578125 106.997070312 l 1
 109.057617188 103.444335938 l 1
 109.452148438 111.129882812 l 2
 109.484375 111.749023438 109.5 112.373046875 109.5 113 c 2
 109.5 119 l 2
 109.5 132.045898438 111.481445312 139.499023438 114.73046875 153.776367188 c 0
 116.3828125 161.0390625 117.388671875 163.83984375 118.220703125 170.497070312 c 0
 119.275390625 178.938476562 119.99609375 183.154296875 120.556640625 185.51171875 c 0
 121.518554688 189.561523438 127.327148438 203.84765625 130.114257812 211.094726562 c 0
 135.689453125 225.591796875 140.446289062 234.670898438 147.0546875 248.62109375 c 0
 168.044921875 292.934570312 180.838867188 328.109375 208.477539062 374.659179688 c 0
 217.202148438 389.352539062 229.052734375 407.85546875 240.850585938 419.231445312 c 0
 248.163085938 426.282226562 254.028320312 429.380859375 258.081054688 430.486328125 c 0
769.30078125 58.5048828125 m 1
 768.866210938 57.9599609375 768.28125 57.228515625 768.28125 57.228515625 c 1
 768.15625 57.166015625 l 1
 768.650390625 57.728515625 769.046875 58.1953125 769.30078125 58.5048828125 c 1
EndSplineSet
EndChar

StartChar: M
Encoding: 77 77 4
Width: 976
Flags: HW
LayerCount: 2
Back
Fore
SplineSet
660 552 m 0
 657.7890625 552 655.265625 552.373046875 653.165039062 552.373046875 c 0
 646.796875 552.373046875 642.41015625 550.575195312 634.833007812 543.040039062 c 0
 628.640625 536.883789062 621.178710938 526.4453125 613.604492188 515.521484375 c 0
 612.81640625 514.384765625 611.96484375 513.296875 611.0546875 512.260742188 c 0
 600.458007812 500.1953125 593.154296875 483.552734375 584.798828125 465.1484375 c 0
 584.25390625 463.948242188 583.64453125 462.783203125 582.9765625 461.657226562 c 0
 573.302734375 445.368164062 567.407226562 424.123046875 559.334960938 404.391601562 c 0
 550.958007812 383.9140625 542.606445312 364.328125 537.25 344.569335938 c 0
 530.206054688 318.5859375 521.068359375 291.038085938 514.18359375 266.329101562 c 0
 513.685546875 264.540039062 511.788085938 254.366210938 510.05078125 243.865234375 c 0
 505.533203125 216.567382812 503.331054688 188.66796875 483.350585938 175.3359375 c 0
 478.561523438 172.140625 471.271484375 169 462.5 169 c 0
 447.775390625 169 438.0859375 176.966796875 432.7109375 183.670898438 c 0
 426.323242188 191.638671875 425.1875 196.186523438 423.174804688 201.354492188 c 0
 417.296875 216.44921875 409.328125 247.676757812 403.795898438 259.900390625 c 2
 383.9453125 298.608398438 l 2
 383.642578125 299.19921875 383.35546875 299.798828125 383.084960938 300.407226562 c 2
 367.084960938 336.407226562 l 2
 366.53515625 337.64453125 366.052734375 338.918945312 365.642578125 340.224609375 c 2
 350.338867188 389.006835938 l 1
 333.091796875 426.224609375 l 1
 313.021484375 459.978515625 l 1
 285.90625 496.131835938 l 1
 261.401367188 519.846679688 l 1
 250.310546875 524.283203125 236.08203125 526.052734375 230.626953125 526.052734375 c 0
 210.802734375 526.052734375 203.55859375 513.76171875 186.998046875 476.521484375 c 0
 182.868164062 467.233398438 178.47265625 457.19921875 172.853515625 446.984375 c 0
 162.5625 419.384765625 151.25390625 391.70703125 143.506835938 362.657226562 c 2
 132.228515625 320.362304688 l 1
 124 270.9921875 l 1
 124 123.724609375 l 1
 131.986328125 121.228515625 l 1
 197.567382812 111.859375 l 2
 235.122070312 109.256835938 274.340820312 108.318359375 314.180664062 108.001953125 c 2
 672.854492188 109.994140625 l 2
 709.202148438 112.098632812 746.038085938 114.215820312 780.380859375 117.823242188 c 0
 784.497070312 118.255859375 788.624023438 118.663085938 792.7578125 119.052734375 c 1
 792.059570312 135.8046875 l 1
 780.169921875 286.412109375 l 1
 772.413085938 351.376953125 l 2
 767.501953125 377.958007812 761.939453125 403.887695312 755.7734375 429.213867188 c 1
 738.369140625 466.6328125 l 2
 725.98828125 485.87109375 713.609375 504.37890625 699.881835938 521.528320312 c 0
 698.365234375 523.423828125 696.909179688 525.271484375 695.502929688 527.055664062 c 0
 678.916015625 548.103515625 672.413085938 552.387695312 666.509765625 552.387695312 c 0
 664.501953125 552.387695312 662.110351562 552 660 552 c 0
864.553710938 125.478515625 m 1
 871.015625 126.1640625 877.422851562 126.912109375 883.756835938 127.751953125 c 0
 885.1484375 127.916015625 886.564453125 128 888 128 c 0
 907.869140625 128 924 111.869140625 924 92 c 0
 924 73.56640625 910.116210938 58.3505859375 892.243164062 56.248046875 c 0
 880.546875 54.8720703125 868.8671875 53.140625 857.109375 52.1328125 c 0
 820.454101562 48.9736328125 783.58984375 46.0234375 747.619140625 42.1796875 c 0
 747.109375 42.12890625 746.59765625 42.0888671875 746.08203125 42.0595703125 c 2
 676.08203125 38.0595703125 l 2
 675.459960938 38.0234375 674.833984375 38.00390625 674.204101562 38.0009765625 c 2
 314 35.99609375 l 1
 248.436523438 37.00390625 l 2
 247.958984375 37.01171875 247.484375 37.0283203125 247.01171875 37.0537109375 c 2
 192.01171875 40.0537109375 l 2
 190.952148438 40.1123046875 189.905273438 40.2158203125 188.872070312 40.36328125 c 2
 118.872070312 50.36328125 l 2
 116.94921875 50.6376953125 115.075195312 51.064453125 113.262695312 51.630859375 c 2
 81.2626953125 61.630859375 l 2
 72.146484375 64.48046875 64.5830078125 70.859375 60.1767578125 79.1650390625 c 0
 55.068359375 85.380859375 52 93.3349609375 52 102 c 2
 52 274 l 2
 52 276.02734375 52.16796875 278.015625 52.490234375 279.952148438 c 2
 61.490234375 333.952148438 l 2
 61.6787109375 335.08203125 61.919921875 336.1953125 62.2119140625 337.287109375 c 2
 74.2119140625 382.287109375 l 2
 74.3994140625 382.993164062 74.6083984375 383.690429688 74.837890625 384.377929688 c 0
 79.9326171875 399.663085938 84.6533203125 415.158203125 90.1552734375 430.2890625 c 2
 106.155273438 474.2890625 l 2
 106.85546875 476.213867188 107.71484375 478.0625 108.717773438 479.818359375 c 0
 112.586914062 486.590820312 116.671875 495.596679688 121.174804688 505.721679688 c 0
 134.904296875 536.594726562 160.083984375 598.052734375 230.626953125 598.052734375 c 0
 245.865234375 598.052734375 271.754882812 595.716796875 298.393554688 582.053710938 c 0
 301.575195312 580.421875 304.481445312 578.331054688 307.02734375 575.868164062 c 2
 338.02734375 545.868164062 l 2
 339.400390625 544.5390625 340.66796875 543.1015625 341.817382812 541.569335938 c 2
 371.817382812 501.569335938 l 2
 372.588867188 500.541015625 373.306640625 499.469726562 373.965820312 498.360351562 c 2
 395.965820312 461.360351562 l 2
 396.591796875 460.30859375 397.165039062 459.22265625 397.682617188 458.10546875 c 2
 416.682617188 417.10546875 l 2
 417.330078125 415.708007812 417.890625 414.262695312 418.357421875 412.775390625 c 2
 433.745117188 363.723632812 l 2
 440.637695312 348.646484375 446.875976562 332.9140625 454.586914062 318.654296875 c 1
 459.134765625 333.584960938 463.853515625 349.056640625 467.75 363.430664062 c 0
 476.7265625 396.540039062 488.788085938 420.034179688 499.45703125 449.684570312 c 0
 504.338867188 463.249023438 509.993164062 479.309570312 519.961914062 496.532226562 c 0
 528.4765625 515.392578125 536.771484375 536.140625 555.497070312 558.067382812 c 0
 575.470703125 586.912109375 602.81640625 624.373046875 653.165039062 624.373046875 c 2
 653.165039062 624.373046875 657.6328125 624.295898438 659.875976562 624.143554688 c 0
 662.08984375 624.305664062 664.302734375 624.387695312 666.509765625 624.387695312 c 0
 713.583984375 624.387695312 738.58984375 588.6875 752.08203125 571.567382812 c 0
 753.48828125 569.783203125 754.83203125 568.079101562 756.118164062 566.471679688 c 0
 773.002929688 545.377929688 787.135742188 523.942382812 800.31640625 503.411132812 c 0
 801.189453125 502.05078125 801.974609375 500.627929688 802.661132812 499.151367188 c 2
 822.661132812 456.151367188 l 2
 823.690429688 453.938476562 824.500976562 451.603515625 825.06640625 449.174804688 c 0
 828.490234375 434.451171875 832.434570312 419.783203125 835.333984375 404.922851562 c 2
 843.333984375 363.922851562 l 2
 843.501953125 363.061523438 843.639648438 362.188476562 843.745117188 361.305664062 c 2
 851.745117188 294.305664062 l 2
 851.801757812 293.829101562 851.849609375 293.349609375 851.887695312 292.8671875 c 2
 863.887695312 140.8671875 l 2
 863.922851562 140.420898438 863.94921875 139.97265625 863.96875 139.521484375 c 2
 864.553710938 125.478515625 l 1
EndSplineSet
EndChar

StartChar: T
Encoding: 84 84 5
Width: 736
Flags: HW
LayerCount: 2
Back
Fore
SplineSet
600.432617188 482.388671875 m 0
 600.432617188 490.669921875 599.591796875 506.229492188 599.071289062 511.25390625 c 0
 597.596679688 517.15625 596.692382812 519.17578125 596.02734375 520.462890625 c 0
 594.93359375 522.580078125 584.46875 535.861328125 580.463867188 541.060546875 c 0
 576.50390625 546.201171875 560.143554688 565.21484375 553.169921875 573.0078125 c 0
 541.982421875 585.5078125 525.556640625 595.533203125 512.138671875 605.706054688 c 0
 508.430664062 607.666015625 501.495117188 610.681640625 496.177734375 613.720703125 c 0
 491.2734375 616.522460938 482.600585938 620.51171875 478.622070312 621.837890625 c 0
 474.325195312 623.270507812 460.2109375 625.239257812 452.912109375 626.69921875 c 0
 440.709960938 629.139648438 430.004882812 633.465820312 419.50390625 636.009765625 c 0
 406.918945312 639.059570312 394.13671875 645.098632812 382.6796875 648.94921875 c 2
 379.365234375 648.91796875 l 1
 382.93359375 362.20703125 l 1
 384.881835938 329.8828125 l 1
 422.912109375 334.30078125 l 2
 436.173828125 336.953125 446.89453125 340.100585938 459.021484375 343.596679688 c 0
 470.80078125 346.993164062 484.697265625 351.838867188 489.776367188 354.614257812 c 0
 501.975585938 361.280273438 514.55078125 372.892578125 526.432617188 383.494140625 c 0
 534.8984375 391.048828125 543.787109375 399.150390625 548.302734375 404.140625 c 0
 558.680664062 415.608398438 570.258789062 424.302734375 579.4921875 434.348632812 c 0
 587.1328125 442.661132812 592.010742188 451.147460938 596.629882812 462.522460938 c 0
 597.291992188 464.991210938 597.534179688 467.05078125 598.006835938 468.608398438 c 0
 599.466796875 473.41015625 600.432617188 475.109375 600.432617188 482.388671875 c 0
312.485351562 334.392578125 m 1
 311.06640625 357.79296875 l 2
 311.03125 358.37109375 311.010742188 358.953125 311.002929688 359.5390625 c 2
 307.373046875 648.146484375 l 1
 261.567382812 642.797851562 l 1
 223.377929688 634.837890625 l 2
 203.716796875 628.284179688 191.10546875 623.817382812 172.483398438 610.891601562 c 0
 159.282226562 600.314453125 153.515625 595.282226562 142.619140625 579.54296875 c 0
 136.793945312 571.12890625 131.645507812 557.4453125 125.8203125 546.376953125 c 0
 124.2109375 541.745117188 121.630859375 523.64453125 121 517 c 2
 121 471.8046875 l 1
 126.348632812 446.590820312 l 1
 131.749023438 435.189453125 l 2
 137.424804688 428.186523438 138.895507812 426.94921875 144.666992188 420.024414062 c 0
 150.245117188 413.331054688 155.196289062 409.010742188 162.202148438 402.641601562 c 0
 170.298828125 395.280273438 183.228515625 387.250976562 193.74609375 379.240234375 c 0
 205.8515625 372.70703125 217.115234375 367.549804688 230.096679688 362.9140625 c 0
 256.358398438 353.53515625 277.377929688 346.975585938 301.578125 338.290039062 c 0
 305.28125 336.9609375 308.916992188 335.658203125 312.485351562 334.392578125 c 1
390.522460938 257.90234375 m 1
 392.000976562 241.702148438 393.446289062 225.44921875 394.86328125 209.153320312 c 0
 394.954101562 208.114257812 395 207.0625 395 206 c 0
 395 205.78515625 394.998046875 205.571289062 394.994140625 205.357421875 c 2
 392.994140625 91.357421875 l 2
 392.9765625 90.3544921875 392.91796875 89.3623046875 392.8203125 88.380859375 c 2
 388.8203125 48.380859375 l 2
 387.002929688 30.208984375 371.647460938 16 353 16 c 0
 333.130859375 16 317 32.130859375 317 52 c 0
 317 53.2216796875 317.056640625 54.4287109375 317.1796875 55.619140625 c 2
 321.005859375 92.642578125 l 1
 323.13671875 202.846679688 l 2
 321.577148438 220.788085938 319.981445312 238.677734375 318.345703125 256.50390625 c 1
 292.278320312 264.43359375 267.580078125 274.4921875 241.986328125 282.71875 c 0
 230.740234375 286.333984375 220.05078125 290.033203125 205.903320312 295.0859375 c 0
 188.181640625 301.415039062 172.307617188 308.849609375 156.69921875 317.427734375 c 0
 154.900390625 318.416015625 153.1953125 319.553710938 151.600585938 320.82421875 c 0
 139.328125 330.596679688 127.119140625 337.248046875 113.797851562 349.358398438 c 0
 106.11328125 356.344726562 98.6787109375 362.760742188 89.3330078125 373.975585938 c 0
 83.3876953125 381.109375 81.107421875 383.172851562 72.7978515625 393.633789062 c 0
 71.09375 395.778320312 69.6298828125 398.12109375 68.4453125 400.62109375 c 2
 59.4453125 419.62109375 l 2
 58.2685546875 422.106445312 57.3671875 424.747070312 56.783203125 427.504882812 c 2
 49.783203125 460.504882812 l 2
 49.26953125 462.922851562 49 465.4296875 49 468 c 2
 49 517 l 2
 49 517.940429688 49.0361328125 518.872070312 49.107421875 519.793945312 c 0
 50.11328125 532.87890625 52.6533203125 551.984375 56.189453125 564.814453125 c 0
 57.2568359375 568.6875 58.181640625 572.401367188 61.4365234375 578.31640625 c 0
 69.3173828125 592.638671875 72.0048828125 604.025390625 83.380859375 620.45703125 c 0
 98.0771484375 641.685546875 112.622070312 655.17578125 127.516601562 667.108398438 c 0
 128.081054688 667.561523438 128.66015625 667.997070312 129.251953125 668.416015625 c 0
 144.716796875 679.348632812 162.747070312 690.615234375 184.219726562 697.35546875 c 0
 189.088867188 698.883789062 198.5078125 702.932617188 204.432617188 704.202148438 c 2
 246.432617188 713.202148438 l 2
 247.49609375 713.4296875 248.577148438 713.610351562 249.673828125 713.7421875 c 2
 299.673828125 719.7421875 l 2
 300.951171875 719.895507812 302.249023438 719.981445312 303.563476562 719.997070312 c 2
 388 721.002929688 l 2
 391.431640625 721.002929688 394.751953125 720.518554688 397.896484375 719.620117188 c 0
 407.181640625 716.967773438 415.666992188 713.643554688 422.854492188 710.887695312 c 0
 437.299804688 705.346679688 441.326171875 704.889648438 453.57421875 701.111328125 c 0
 464.598632812 697.709960938 465.971679688 697.377929688 475.989257812 695.76171875 c 0
 482.888671875 694.649414062 491.423828125 693.48046875 501.377929688 690.162109375 c 0
 512.26171875 686.534179688 522.7265625 681.477539062 531.822265625 676.279296875 c 0
 539.60546875 671.83203125 544.618164062 671.564453125 555.07421875 663.431640625 c 0
 556.03125 662.6875 558.805664062 660.71484375 562.3046875 658.280273438 c 0
 573.140625 650.740234375 590.989257812 638.692382812 606.830078125 620.9921875 c 0
 615.102539062 611.75 630.396484375 594.208007812 637.536132812 584.939453125 c 0
 645.8203125 574.184570312 653.0078125 567.043945312 660.03515625 553.444335938 c 0
 664 545.770507812 666.711914062 537.61328125 668.928710938 528.74609375 c 0
 670.920898438 520.775390625 670.916015625 516.365234375 671.430664062 509.032226562 c 0
 672.033203125 500.432617188 672.432617188 490.692382812 672.432617188 482.388671875 c 0
 672.432617188 481.139648438 672.443359375 479.984375 672.443359375 478.859375 c 0
 672.443359375 464.599609375 667.163085938 450.375 665.166015625 441.266601562 c 0
 664.728515625 439.26953125 664.124023438 437.334960938 663.370117188 435.477539062 c 0
 656.624023438 418.864257812 647.12109375 401.55078125 632.5078125 385.651367188 c 0
 622.284179688 374.528320312 610.465820312 365.548828125 601.697265625 355.859375 c 0
 590.501953125 343.48828125 578.59765625 333.717773438 567.202148438 323.358398438 c 0
 555.6875 312.890625 542.159179688 301.185546875 524.223632812 291.385742188 c 0
 508.072265625 282.560546875 491.516601562 278.0234375 477.032226562 273.841796875 c 0
 465.638671875 270.552734375 452.8984375 266.861328125 437.087890625 263.69921875 c 0
 436.16796875 263.514648438 435.236328125 263.365234375 434.29296875 263.25390625 c 2
 394.115234375 258.518554688 l 1
 390.522460938 257.90234375 l 1
EndSplineSet
EndChar

StartChar: E
Encoding: 69 69 6
Width: 568
Flags: HW
LayerCount: 2
Back
SplineSet
290 199 m 1
 324 199 l 1025
118 375 m 1
 114 265 l 0
 118 165 l 0
 120 115 l 0
 121.179863268 112.050312331 122 109.739261418 122 109 c 0
 122 95 l 0
 118.620376783 48.2177525181 174.370874316 58.8115666423 214 53 c 0
 243.80454233 49.1403520862 271.870398757 42.9588279487 306 45 c 0
 328.263505813 46.331502396 356.559191602 47.0232512457 378 47 c 0
 396 53 l 1025
134 382 m 1
 119 393 l 0
 114 399 109.999572409 403.999714954 104 413 c 0
 97.67578125 422.487304688 88.272150508 458.763454409 86 467 c 0
 78 496 79.4455064914 511.802775306 82 545 c 0
 84.9515620208 583.357375844 111.544819396 609.344994062 129 622 c 0
 169 651 220.256485724 660.984289402 267 664 c 0
 329 668 357.382014704 648.459042508 395 619 c 0
 466.956289935 562.650267624 428.999357088 625.999790857 456 543 c 0
 468.51171875 504.5390625 440.916276148 439.935402604 426 413 c 0
 404.751953125 374.630859375 400.388671875 359.609375 361 353 c 0
 330.142578125 347.822265625 277.893234775 349.096729129 249 349 c 0
 225.385227175 348.920942172 202.834212991 355 187 355 c 0
 183.471111111 355 175.248888889 357 173 357 c 0
 168.424077668 357 155.069331899 367 151 367 c 0
 143 367 l 0
 135 371 l 1025
EndSplineSet
Fore
SplineSet
284.486655986 384.028104195 m 0
 290.387705526 384.028104195 296.577163561 383.92413564 302.437501374 383.92413564 c 0
 326.170732611 383.92413564 348.218738434 385.121648396 369.274922314 390.672466216 c 0
 370.009711659 391.23056036 374.095477367 394.780225792 379.048064572 402.786009836 c 0
 390.496740323 421.292627125 401.619253191 449.977261581 413.484002848 471.402301292 c 0
 419.751265032 482.719551555 424.382645809 497.625880665 424.382645809 511.193046967 c 0
 424.382645809 520.706990014 422.374274122 529.795142136 417.507688324 538.554996572 c 0
 399.244605121 571.428546338 383.986003712 588.285211546 361.570222972 602.695356308 c 0
 345.190985472 613.224866129 329.812824772 622.531003786 321.930195188 625.158394947 c 0
 315.093865397 627.43703969 306.95450012 628.899722555 291.628910579 628.899722555 c 0
 285.382890483 628.899722555 278.012573037 628.634505035 269.348284303 628.075518665 c 0
 225.656062613 625.256665652 181.4079621 615.534721609 150.098464469 592.835335827 c 0
 136.55332647 583.015110778 119.622352494 564.680457691 117.892860507 542.20463854 c 0
 116.873694499 528.959945273 115.982109518 516.822578931 115.982109518 508.941895256 c 0
 115.982109518 497.910117618 117.886669186 487.032924225 121.619356216 473.232567042 c 0
 124.289895101 463.359146047 131.880282539 437.719470565 134.472949328 432.188349985 c 0
 142.441772457 420.301613644 149.093988168 413.234104886 157.8897257 403.085176964 c 2
 163.993824845 397.450623907 l 2
 172.050694313 394.573170525 174.124775897 393.26783866 186.502537931 391.720618406 c 0
 195.415184702 390.606537559 217.398048793 387.282247948 229.037107767 385.649722772 c 0
 239.861707436 384.131435811 248.546663462 383.805955116 258.60994764 383.805955116 c 0
 267.155339378 383.805955116 275.418393877 384.028104195 284.486655986 384.028104195 c 0
284.486655986 312.028104195 m 0
 275.690208295 312.028104195 267.441348219 311.805955116 258.60994764 311.805955116 c 0
 245.022423598 311.805955116 227.167334023 313.147219626 211.595891657 315.41981198 c 0
 201.259221188 316.928409432 182.483484166 319.656128832 177.497462069 320.279381594 c 0
 170.070238232 321.207784574 160.653614825 322.653045565 152.213984923 325.219076302 c 1
 150.026615988 265.066430584 l 1
 155.744065706 122.130187635 l 2
 157.152054373 117.84370337 158 116.56952408 158 109 c 2
 158 95 l 2
 158 94.6625851088 157.995347975 94.326248182 157.986104621 93.9910499145 c 0
 171.436982486 91.003612688 200.346777759 91.0721202556 218.660514493 88.7005161223 c 0
 227.472638511 87.5593579824 237.005629053 87.0803073561 247.264445043 87.0803073561 c 0
 265.17102482 87.0803073561 288.011590108 88.7506812498 307.822328476 89.9350849868 c 0
 326.711065492 91.0643660006 371.021927775 97.661176619 395.497462069 100.720618406 c 0
 396.972562357 100.905005942 398.475275194 101 400 101 c 0
 419.86894 101 436 84.86894 436 65 c 0
 436 56.0401649488 432.524751487 48.7103257697 430.161908265 41.6217961041 c 0
 425.395208925 27.3216980864 411.893473452 17 396 17 c 0
 387.384664767 17 379.472111033 20.0328984704 373.272696615 25.0883375946 c 1
 346.283215416 21.3955420501 323.643674442 18.8010403659 299.889152696 17.3036430002 c 0
 282.547263318 16.210474308 265.062369785 15.0803073561 247.264445043 15.0803073561 c 0
 225.824896123 15.0803073561 207.952289682 17.936523979 185.875978354 18.9504504229 c 0
 171.695408507 19.6017392431 155.430231851 19.8914948419 138.013335729 24.7214765585 c 0
 124.454484658 28.4815611517 107.079352058 36.3765769596 95.8803423905 54.1595407331 c 0
 88.8302487994 65.3544198024 85.8530924211 78.3396053538 85.8530924211 91.0500430335 c 0
 85.8530924211 92.759998311 85.9035241088 94.4628562844 86 96.1617953896 c 2
 86 103.147204911 l 2
 84.8570738373 106.421972601 84.1742572251 109.911739087 84.0291714659 113.538883066 c 2
 78.0291714659 263.538883066 l 2
 78.0097855446 264.023531098 78 264.510631799 78 265 c 0
 78 265.444901793 78.0080880127 265.887929437 78.0241248983 266.328943791 c 2
 82.0241248983 376.328943791 l 2
 82.0823160846 377.929201414 82.2451670741 379.502950818 82.5060301706 381.043544337 c 0
 79.8307643834 384.609033541 77.0516766815 388.526244127 74.0237574459 393.068590248 c 0
 63.2406009475 409.244990091 56.3148505649 439.20798338 51.2915296794 457.417521591 c 0
 46.133129982 476.116720494 43.9821095178 492.651904919 43.9821095178 508.941895256 c 0
 43.9821095178 521.407809287 45.0416242149 533.94833073 46.1071394933 547.79536146 c 0
 50.2807715471 602.034293997 86.536312321 635.674877346 107.901535531 651.164664173 c 0
 156.5920379 686.465278391 214.856908836 696.711913151 264.651715697 699.924481335 c 0
 274.461656156 700.55738072 283.337380181 700.899722555 291.628910579 700.899722555 c 0
 311.727205601 700.899722555 328.867413199 698.75496964 344.685426934 693.48260348 c 0
 365.979566303 686.384967729 382.157342886 675.051208498 400.429777028 663.304643692 c 0
 434.013996288 641.714788454 458.755394879 612.571453662 480.492311676 573.445003428 c 0
 491.84269564 553.014312292 496.382645809 531.427820496 496.382645809 511.193046967 c 0
 496.382645809 482.446492551 487.765853922 456.912381698 476.515997152 436.597698708 c 0
 461.746751524 409.927799786 452.334202926 380.5062064 433.402448605 354.672169179 c 0
 423.764927175 341.520926926 409.701027167 326.921787303 388.287335887 321.211469629 c 0
 357.646479226 313.040574519 328.531361778 311.92413564 302.437501374 311.92413564 c 0
 296.322338786 311.92413564 290.483850547 312.028104195 284.486655986 312.028104195 c 0
291 172 m 2
 271.13106 172 255 188.13106 255 208 c 0
 255 227.86894 271.13106 244 291 244 c 2
 314 244 l 2
 333.86894 244 350 227.86894 350 208 c 0
 350 188.13106 333.86894 172 314 172 c 2
 291 172 l 2
EndSplineSet
EndChar

StartChar: C
Encoding: 67 67 7
Width: 578
Flags: HW
LayerCount: 2
Back
Fore
SplineSet
253.828125 266.588867188 m 0
 253.638671875 266.609375 253.450195312 266.630859375 253.260742188 266.65234375 c 0
 214.7578125 270.9453125 185.283203125 283.348632812 156.302734375 291.92578125 c 1
 156.296875 271.635742188 156.993164062 258.485351562 158.659179688 239.477539062 c 0
 159.68359375 227.780273438 160.692382812 213.73046875 161.07421875 201.150390625 c 0
 161.5 187.146484375 162.50390625 177.666992188 163.890625 173.810546875 c 0
 170.294921875 156.00390625 185.213867188 127.340820312 199.236328125 116.395507812 c 0
 216.426757812 102.978515625 245.158203125 92.4775390625 268.892578125 89.830078125 c 0
 285.8984375 87.93359375 306.66796875 86.072265625 317.515625 90.3232421875 c 0
 322.776367188 92.3837890625 328.598632812 93.2333984375 334.599609375 92.564453125 c 0
 354.345703125 90.36328125 368.58984375 72.54296875 366.388671875 52.796875 c 0
 364.85546875 39.05078125 355.75390625 27.970703125 343.704101562 23.2490234375 c 0
 319.852539062 13.9052734375 293.10546875 14.6826171875 263.982421875 17.9306640625 c 0
 262.931640625 18.0478515625 261.908203125 18.162109375 260.912109375 18.2734375 c 0
 225.014648438 22.2763671875 185.950195312 35.43359375 155.0078125 59.5830078125 c 0
 141.438476562 70.1748046875 131.075195312 83.2939453125 122.166015625 96.9765625 c 0
 111.010742188 114.10546875 102.2265625 132.49609375 96.1044921875 149.521484375 c 0
 87.44140625 173.61328125 89.796875 189.557617188 88.6572265625 210.596679688 c 0
 87.6591796875 229.010742188 85.302734375 246.484375 84.6689453125 266.158203125 c 0
 84.0517578125 285.333984375 83.919921875 312.868164062 85.5087890625 336.891601562 c 1
 78.703125 352.358398438 80.6435546875 363.728515625 80.640625 370.44921875 c 0
 80.451171875 370.881835938 80.26953125 371.3203125 80.095703125 371.760742188 c 2
 64.431640625 411.743164062 l 2
 62.3701171875 417.00390625 61.5205078125 422.827148438 62.1904296875 428.828125 c 2
 71.720703125 514.296875 l 2
 72.0849609375 517.55859375 72.875 520.669921875 74.0283203125 523.581054688 c 2
 90.8310546875 565.979492188 l 2
 91.8671875 568.595703125 93.197265625 571.049804688 94.7763671875 573.306640625 c 2
 123.201171875 613.940429688 l 2
 127.2109375 619.991210938 130.370117188 622.688476562 133.658203125 625.729492188 c 0
 145.524414062 636.705078125 165.037109375 650.19921875 175.221679688 656.676757812 c 0
 189.958007812 666.047851562 210.337890625 679.180664062 237.45703125 688.171875 c 0
 262.995117188 696.638671875 294.748046875 701.1953125 331.731445312 697.0703125 c 0
 368.002929688 693.025390625 397.9921875 681.711914062 423.647460938 670.72265625 c 0
 470.095703125 650.829101562 490.352539062 614.508789062 507.536132812 583.029296875 c 0
 523.010742188 554.681640625 526.604492188 514.904296875 522.279296875 476.125976562 c 0
 516.997070312 428.756835938 497.888671875 398.48046875 484.290039062 369.916015625 c 0
 461.40234375 321.8359375 424.622070312 287.913085938 383.615234375 267.818359375 c 0
 370.075195312 261.181640625 356.969726562 259.518554688 344.484375 258.905273438 c 0
 328.762695312 258.1328125 312.981445312 259.473632812 297.592773438 261.189453125 c 0
 282.952148438 262.822265625 267.892578125 265.020507812 253.828125 266.588867188 c 0
  Spiro
    253.828 266.589 o
    253.639 266.61 o
    253.449 266.631 o
    253.26 266.652 o
    217.484 273.198 o
    185.733 282.525 o
    156.303 291.926 v
    156.54 273.551 o
    157.307 256.998 o
    158.659 239.477 o
    159.655 227.151 o
    160.507 214.066 o
    161.074 201.151 o
    161.685 188.706 o
    162.64 179.493 o
    163.89 173.811 o
    172.773 153.465 o
    185.277 132.169 o
    199.236 116.396 o
    219.638 104.144 o
    244.13 94.905 o
    268.892 89.8297 o
    286.628 88.1713 o
    303.883 87.8854 o
    317.515 90.3231 o
    322.944 91.9676 o
    328.678 92.7389 o
    334.6 92.5645 o
    352.091 85.675 o
    363.521 71.3769 o
    366.388 52.7966 o
    362.509 40.0874 o
    354.59 29.9447 o
    343.703 23.249 o
    318.932 16.999 o
    292.266 15.7903 o
    263.982 17.9305 o
    262.942 18.0466 o
    261.916 18.1613 o
    260.912 18.2737 o
    224.414 25.3857 o
    188.204 39.0467 o
    155.008 59.5826 o
    142.454 70.9322 o
    131.614 83.5674 o
    122.165 96.9763 o
    111.821 114.411 o
    103.095 132.156 o
    96.1045 149.521 o
    90.5795 171.368 o
    89.1686 190.785 o
    88.657 210.597 o
    87.3219 228.796 o
    85.7612 247.12 o
    84.6688 266.159 o
    84.2591 287.657 o
    84.4479 312.163 o
    85.5087 336.891 v
    81.2248 350.959 o
    80.3917 362.209 o
    80.6403 370.449 o
    80.4536 370.883 o
    80.2718 371.321 o
    80.0958 371.761 [
    64.4313 411.743 ]
    62.7865 417.172 o
    62.015 422.907 o
    62.1898 428.828 [
    71.7208 514.297 ]
    72.2236 517.504 o
    72.9989 520.608 o
    74.0282 523.581 [
    90.8305 565.98 ]
    91.9618 568.538 o
    93.2831 570.988 o
    94.7765 573.307 [
    123.2 613.941 ]
    126.96 619.006 o
    130.38 622.669 o
    133.658 625.729 o
    147.429 637.18 o
    162.571 648.224 o
    175.222 656.677 o
    191.861 666.998 o
    212.566 678.104 o
    237.457 688.172 o
    265 695.153 o
    296.561 698.479 o
    331.731 697.07 o
    365.949 690.892 o
    396.504 681.529 o
    423.647 670.723 o
    462.19 646.17 o
    488.493 615.303 o
    507.536 583.03 o
    519.189 551.367 o
    523.819 514.739 o
    522.279 476.126 o
    513.117 433.923 o
    498.994 399.589 o
    484.29 369.916 o
    457.16 326.581 o
    422.818 292.505 o
    383.615 267.818 o
    370.24 262.698 o
    357.157 260.012 o
    344.484 258.905 o
    328.775 258.772 o
    313.08 259.664 o
    297.593 261.189 o
    282.879 262.964 o
    268.157 264.856 o
    0 0 z
  EndSpiro
261.80859375 338.14453125 m 0
 276.220703125 336.538085938 291.317382812 334.334960938 305.572265625 332.745117188 c 0
 322.5390625 330.853515625 341.696289062 328.819335938 352.009765625 332.506835938 c 0
 379.743164062 346.098632812 403.55859375 367.868164062 419.258789062 400.84765625 c 0
 431.294921875 426.1328125 447.453125 454.774414062 450.723632812 484.10546875 c 0
 452.124023438 496.666992188 452.306640625 511.84765625 450.572265625 525.421875 c 0
 449.241210938 535.844726562 446.540039062 544.512695312 444.306640625 548.60546875 c 0
 426.3984375 581.41015625 418.65625 594.51953125 395.293945312 604.526367188 c 0
 371.8515625 614.56640625 349.420898438 622.651367188 323.751953125 625.514648438 c 0
 270.038085938 631.50390625 241.450195312 613.364257812 209.797851562 593.357421875 c 0
 208.296875 592.408203125 200.223632812 586.885742188 193.298828125 581.640625 c 0
 188.413085938 577.940429688 183.444335938 573.6796875 181.943359375 572.30078125 c 2
 156.231445312 535.54296875 l 1
 142.740234375 501.5 l 1
 134.733398438 429.692382812 l 1
 146.188476562 400.453125 l 2
 151.362304688 390.697265625 152.875976562 378.98828125 152.63671875 368.037109375 c 1
 157.263671875 366.045898438 168.168945312 363.473632812 175.606445312 361.30859375 c 0
 201.3515625 353.815429688 234.6875 341.169921875 261.240234375 338.208007812 c 0
 261.4296875 338.1875 261.619140625 338.166015625 261.80859375 338.14453125 c 0
  Spiro
    261.808 338.145 o
    276.377 336.386 o
    291.108 334.493 o
    305.572 332.745 o
    322.843 331.025 o
    339.172 330.51 o
    352.01 332.507 o
    378.257 348.917 o
    401.029 371.518 o
    419.259 400.847 o
    432.026 427.125 o
    443.797 455.132 o
    450.723 484.106 o
    451.691 497.37 o
    451.693 511.483 o
    450.572 525.422 o
    448.854 535.146 o
    446.625 543.099 o
    444.306 548.605 o
    428.846 575.438 o
    414.388 592.885 o
    395.293 604.526 o
    372.054 613.785 o
    348.475 621.038 o
    323.751 625.514 o
    277.409 624.293 o
    241.44 611.901 o
    209.797 593.357 o
    206.397 591.067 o
    200.314 586.794 o
    193.299 581.641 o
    188.521 577.885 o
    184.465 574.51 o
    181.943 572.301 [
    156.231 535.543 v
    142.74 501.5 v
    134.733 429.693 v
    146.188 400.453 ]
    150.21 390.157 o
    152.222 379.129 o
    152.636 368.037 v
    158.987 365.891 o
    167.382 363.57 o
    175.606 361.308 o
    203.32 352.656 o
    232.988 343.84 o
    261.24 338.208 o
    261.429 338.187 o
    261.619 338.166 o
    0 0 z
  EndSpiro
EndSplineSet
EndChar

StartChar: L
Encoding: 76 76 8
Width: 740
Flags: HW
LayerCount: 2
Back
Fore
SplineSet
603.563476562 343.6484375 m 0
 603.563476562 367.98828125 597.286132812 401.08984375 592.151367188 419.797851562 c 0
 587.166992188 437.954101562 575.587890625 462.076171875 567.215820312 482.307617188 c 0
 561.251953125 496.721679688 551.907226562 518.211914062 541.133789062 535.7421875 c 0
 522.599609375 565.903320312 495.182617188 586.610351562 458.791992188 607.455078125 c 0
 441.637695312 617.28125 424.969726562 618.2734375 391.061523438 618.951171875 c 0
 386.672851562 619.038085938 381.87890625 619.200195312 377.284179688 619.200195312 c 0
 340.248046875 619.200195312 294.6640625 607.088867188 274.133789062 590.918945312 c 0
 240.969726562 564.797851562 225.252929688 549.454101562 214.234375 532.395507812 c 0
 205.32421875 518.599609375 198.0234375 501.290039062 188.640625 472.560546875 c 0
 181.440429688 450.510742188 172.498046875 415.119140625 172.498046875 389.974609375 c 0
 172.498046875 386.306640625 172.671875 382.899414062 173 379.869140625 c 0
 175.96875 352.411132812 184.876953125 320.56640625 190.692382812 294.54296875 c 0
 192.487304688 286.51171875 199.387695312 263.841796875 206.50390625 244.146484375 c 0
 212.161132812 228.489257812 218.904296875 212.993164062 220.967773438 209.504882812 c 0
 223.35546875 205.467773438 232.374023438 193.84765625 244.616210938 181.239257812 c 0
 271.193359375 153.869140625 315.46875 117.310546875 354.083007812 101.359375 c 0
 366.823242188 96.0966796875 377.841796875 93.787109375 384.909179688 93.787109375 c 0
 394.637695312 93.787109375 404.208007812 92.626953125 413.805664062 92.013671875 c 1
 453.956054688 101.815429688 l 1
 467.255859375 109.4921875 506.651367188 132.250976562 518.002929688 139.034179688 c 1
 518.799804688 139.42578125 l 1
 557.206054688 166.92578125 580.619140625 206.681640625 588.754882812 235.805664062 c 0
 592.619140625 249.641601562 603.563476562 309.693359375 603.563476562 343.6484375 c 0
66.8076171875 20.837890625 m 0
 66.8076171875 40.70703125 82.9384765625 56.837890625 102.807617188 56.837890625 c 0
 105.75390625 56.837890625 108.619140625 56.4833984375 111.361328125 55.8134765625 c 0
 121.942382812 53.2314453125 127.46484375 52.732421875 133.76953125 52.732421875 c 0
 150.465820312 52.732421875 188.709960938 50.15234375 205.193359375 48.6484375 c 1
 296.078125 49.8193359375 l 1
 258.415039062 71.1875 219.74609375 103.517578125 192.965820312 131.09765625 c 0
 178.146484375 146.358398438 166.756835938 159.73046875 158.951171875 172.926757812 c 0
 151.374023438 185.737304688 145.236328125 201.793945312 138.764648438 219.706054688 c 0
 130.719726562 241.97265625 123.635742188 264.415039062 120.423828125 278.79296875 c 0
 114.10546875 307.0625 105.244140625 336.681640625 101.419921875 372.056640625 c 0
 100.771484375 378.053710938 100.498046875 384.030273438 100.498046875 389.974609375 c 0
 100.498046875 429.48046875 111.778320312 469.173828125 120.180664062 494.90625 c 0
 130.166015625 525.478515625 139.461914062 549.328125 153.709960938 571.385742188 c 0
 171.638671875 599.143554688 195.122070312 620.325195312 229.63671875 647.508789062 c 0
 246.688476562 660.939453125 267.094726562 670.411132812 289.120117188 677.46484375 c 0
 316.666015625 686.287109375 347.13671875 691.200195312 377.284179688 691.200195312 c 0
 382.3984375 691.200195312 387.510742188 691.036132812 392.524414062 690.936523438 c 0
 424.740234375 690.29296875 459.083984375 690.265625 494.501953125 669.9765625 c 0
 534.599609375 647.008789062 574.583007812 618.831054688 602.521484375 573.36328125 c 0
 616.978515625 549.838867188 627.375 525.260742188 633.77734375 509.790039062 c 0
 643.729492188 485.739257812 654.302734375 465.428710938 661.59375 438.872070312 c 0
 668.305664062 414.4140625 675.563476562 377.798828125 675.563476562 343.6484375 c 0
 675.563476562 297.30078125 664.458984375 239.150390625 658.110351562 216.418945312 c 0
 645.602539062 171.64453125 613.97265625 119.02734375 560.638671875 80.837890625 c 0
 555.64453125 77.263671875 532.874023438 64.0244140625 513.676757812 52.9912109375 c 1
 645.08203125 55.00390625 l 2
 664.950195312 55.00390625 681.08203125 38.869140625 681.08203125 19 c 0
 681.08203125 -0.681640625 665.25390625 -16.6953125 645.643554688 -16.99609375 c 0
 498.44921875 -19.236328125 351.421875 -21.642578125 203.72265625 -23.376953125 c 0
 202.540039062 -23.376953125 201.372070312 -23.3173828125 200.21875 -23.205078125 c 0
 188.868164062 -22.107421875 144.560546875 -19.267578125 133.76953125 -19.267578125 c 0
 121.754882812 -19.267578125 108.90234375 -17.7138671875 94.25390625 -14.1376953125 c 0
 78.5078125 -10.294921875 66.8076171875 3.916015625 66.8076171875 20.837890625 c 0
332.08203125 381 m 0
 332.08203125 400.869140625 348.212890625 417 368.08203125 417 c 0
 387.950195312 417 404.08203125 400.869140625 404.08203125 381 c 0
 404.08203125 361.130859375 387.950195312 345 368.08203125 345 c 0
 348.212890625 345 332.08203125 361.130859375 332.08203125 381 c 0
EndSplineSet
EndChar

StartChar: U
Encoding: 85 85 9
Width: 768
Flags: HW
LayerCount: 2
Back
Fore
SplineSet
87.5 420 m 0
 67.630859375 420 51.5 436.130859375 51.5 456 c 0
 51.5 474.7578125 65.8779296875 490.184570312 84.205078125 491.850585938 c 0
 132.88671875 495.849609375 180.296875 501.120117188 227.3359375 506.76171875 c 0
 228.278320312 506.870117188 229.231445312 506.942382812 230.194335938 506.9765625 c 2
 398.194335938 512.9765625 l 2
 398.545898438 512.989257812 398.8984375 512.997070312 399.251953125 512.999023438 c 2
 545.55859375 513.987304688 l 1
 619.90234375 521.421875 l 1
 643.122070312 529.162109375 l 2
 646.698242188 530.354492188 650.524414062 531 654.5 531 c 0
 674.369140625 531 690.5 514.869140625 690.5 495 c 0
 690.5 479.106445312 680.178710938 465.604492188 665.877929688 460.837890625 c 2
 638.877929688 451.837890625 l 2
 636.400390625 451.01171875 633.802734375 450.448242188 631.119140625 450.1796875 c 2
 602.358398438 447.303710938 l 1
 603.77734375 440.208984375 605.831054688 433.25390625 606.397460938 425.735351562 c 2
 613.397460938 332.735351562 l 2
 613.465820312 331.83203125 613.5 330.919921875 613.5 330 c 0
 613.5 308.426757812 611.580078125 277.44921875 608.60546875 248.961914062 c 0
 606.202148438 225.936523438 603.685546875 206.0859375 598.947265625 190.516601562 c 0
 590.985351562 164.35546875 579.922851562 139.842773438 568.84375 120.290039062 c 0
 559.706054688 104.165039062 548.734375 90.158203125 535.782226562 78.2314453125 c 0
 519.572265625 63.3037109375 501.18359375 51.9853515625 479.581054688 40.30859375 c 0
 459.475585938 29.4404296875 435.775390625 21 409.5 21 c 0
 393.649414062 21 379.625976562 22.701171875 366.809570312 26.3251953125 c 0
 350.7265625 30.873046875 337.8203125 38.025390625 326.016601562 45.107421875 c 0
 307.36328125 56.2998046875 291.809570312 68.0263671875 278.758789062 82.42578125 c 0
 262.380859375 100.497070312 251.47265625 120.909179688 240.584960938 145.407226562 c 0
 229.1640625 171.104492188 215.60546875 219.705078125 214.513671875 258.983398438 c 2
 211.514648438 365.974609375 l 2
 211.504882812 366.315429688 211.5 366.657226562 211.5 367 c 0
 211.5 368.029296875 211.54296875 369.047851562 211.627929688 370.055664062 c 2
 216.935546875 433.078125 l 1
 196.905273438 430.766601562 176.887695312 427.975585938 156.794921875 426.149414062 c 2
 90.794921875 420.149414062 l 2
 89.7099609375 420.05078125 88.6103515625 420 87.5 420 c 0
409.5 93 m 0
 419.33203125 93 432.7890625 96.865234375 445.418945312 103.69140625 c 0
 464.926757812 114.236328125 477.7734375 122.671875 487.036132812 131.201171875 c 0
 494.462890625 138.040039062 500.182617188 145.168945312 506.15625 155.709960938 c 0
 514.56640625 170.55078125 523.896484375 191.255859375 530.052734375 211.483398438 c 0
 536.334960938 232.125 543.443359375 302.8046875 541.497070312 328.671875 c 2
 534.767578125 418.06640625 l 1
 530.004882812 441.880859375 l 1
 400.27734375 441.004882812 l 1
 289.528320312 437.048828125 l 1
 283.54296875 365.977539062 l 1
 286.486328125 261.016601562 l 2
 286.826171875 248.75390625 289.383789062 232.666015625 292.913085938 217.680664062 c 0
 297.298828125 199.052734375 303.40234375 181.37109375 306.415039062 174.592773438 c 0
 316.21484375 152.541992188 323.458984375 140.30078125 332.116210938 130.749023438 c 0
 339.09375 123.049804688 347.973632812 115.8984375 362.983398438 106.892578125 c 0
 373.401367188 100.641601562 379.600585938 97.546875 386.415039062 95.619140625 c 0
 391.916015625 94.0634765625 398.638671875 93 409.5 93 c 0
EndSplineSet
EndChar

StartChar: P
Encoding: 80 80 10
Width: 588
Flags: HW
LayerCount: 2
Back
Fore
SplineSet
152.796875 208.865234375 m 2
 152.796875 218.046875 152.477539062 227.21484375 152.315429688 236.385742188 c 1
 266.97265625 244.288085938 l 2
 267.518554688 244.326171875 268.060546875 244.375976562 268.598632812 244.4375 c 2
 345.387695312 253.231445312 l 2
 352.549804688 254.051757812 358.301757812 256.038085938 366.143554688 257.842773438 c 0
 384.220703125 262.001953125 405.05859375 266.587890625 422.013671875 272.72265625 c 0
 440.852539062 279.541015625 458.33984375 287.708007812 473.759765625 299.8671875 c 0
 493.3125 315.286132812 507.721679688 337.24609375 513.455078125 363.329101562 c 0
 519.747070312 391.95703125 517.342773438 424.852539062 520.052734375 454.771484375 c 0
 520.463867188 459.311523438 520.666992188 463.814453125 520.666992188 468.272460938 c 0
 520.666992188 512.431640625 500.53125 547.640625 477.370117188 574.642578125 c 0
 453.36328125 602.630859375 428.692382812 620.950195312 403.844726562 642.55859375 c 0
 384.010742188 659.8046875 359.544921875 673.1796875 334.158203125 682.330078125 c 0
 313.831054688 689.65625 292.783203125 694.381835938 271.672851562 694.381835938 c 2
 206.563476562 694.381835938 l 2
 193.05078125 694.376953125 180.486328125 693.796875 167.323242188 690.467773438 c 0
 156.838867188 687.814453125 146.916992188 683.53125 137.25 678.201171875 c 0
 121.921875 669.747070312 103.827148438 654.725585938 93.0498046875 636.899414062 c 0
 78.796875 613.31640625 77.6455078125 585.615234375 76.130859375 553.008789062 c 2
 73.7451171875 501.772460938 l 2
 73.7197265625 501.209960938 73.7060546875 500.643554688 73.7060546875 500.07421875 c 0
 73.7060546875 499.596679688 73.7158203125 499.122070312 73.7333984375 498.6484375 c 0
 78.3369140625 404.194335938 80.796875 305.647460938 80.796875 208.541015625 c 2
 80.796875 96.486328125 l 2
 80.796875 79.576171875 81.5859375 62.6708984375 81.9853515625 45.78125 c 0
 82.4462890625 26.3125 98.396484375 10.6474609375 117.975585938 10.6474609375 c 0
 137.844726562 10.6474609375 153.975585938 26.7783203125 153.975585938 46.6474609375 c 0
 153.975585938 63.4130859375 153.193359375 80.1748046875 152.796875 96.919921875 c 2
 152.796875 208.865234375 l 2
271.672851562 622.381835938 m 2
 302.138671875 622.381835938 339.749023438 602.896484375 356.637695312 588.2109375 c 0
 378.790039062 568.946289062 405.241210938 548.163085938 422.703125 527.805664062 c 0
 439.626953125 508.075195312 448.666992188 489.584960938 448.666992188 468.272460938 c 0
 448.666992188 466.041992188 448.565429688 463.734375 448.34765625 461.3359375 c 0
 446.2265625 437.911132812 446.8359375 395.6875 443.130859375 378.833007812 c 0
 440.733398438 367.923828125 437.0859375 362.627929688 429.23046875 356.43359375 c 0
 408.713867188 340.254882812 370.223632812 332.970703125 334.927734375 324.509765625 c 1
 261.143554688 316.059570312 l 1
 151.040039062 308.471679688 l 1
 149.24609375 409.842773438 l 2
 149.241210938 410.102539062 149.234375 410.361328125 149.224609375 410.620117188 c 2
 145.739257812 499.936523438 l 1
 146.509765625 516.497070312 147.28125 533.057617188 148.051757812 549.618164062 c 0
 148.752929688 564.708007812 149.486328125 577.798828125 151.017578125 586.948242188 c 0
 152.255859375 594.341796875 154.0546875 598.639648438 154.715820312 599.733398438 c 0
 155.4140625 600.889648438 157.8125 603.860351562 160.87109375 606.678710938 c 0
 168.198242188 613.4296875 177.000976562 618.633789062 185.01171875 620.66015625 c 0
 189.32421875 621.750976562 195.131835938 622.376953125 206.592773438 622.381835938 c 2
 271.672851562 622.381835938 l 2
243.822265625 451.212890625 m 0
 243.822265625 471.08203125 259.953125 487.212890625 279.822265625 487.212890625 c 0
 299.69140625 487.212890625 315.822265625 471.08203125 315.822265625 451.212890625 c 0
 315.822265625 431.34375 299.69140625 415.212890625 279.822265625 415.212890625 c 0
 259.953125 415.212890625 243.822265625 431.34375 243.822265625 451.212890625 c 0
EndSplineSet
EndChar

StartChar: S
Encoding: 83 83 11
Width: 712
Flags: HW
LayerCount: 2
Back
Fore
SplineSet
378 368 m 0
 378 382.624023438 375.786132812 400.646484375 375.786132812 415.756835938 c 0
 375.786132812 418.536132812 375.854492188 421.360351562 376.1796875 424.618164062 c 0
 376.827148438 431.096679688 377 449.047851562 377 460 c 0
 377 462.110351562 376.966796875 464.717773438 376.966796875 467.693359375 c 0
 376.966796875 476.6484375 377.26953125 488.94140625 379.69921875 501.087890625 c 0
 384.73828125 526.287109375 404.549804688 552.59765625 415.223632812 566.322265625 c 0
 427.298828125 585.815429688 444.147460938 600.962890625 461.84375 614.557617188 c 0
 485.612304688 632.818359375 511.534179688 648.103515625 534.516601562 661.892578125 c 0
 536.32421875 662.977539062 538.234375 663.907226562 540.229492188 664.665039062 c 2
 590.229492188 683.665039062 l 2
 594.19921875 685.173828125 598.50390625 686 603 686 c 0
 622.869140625 686 639 669.869140625 639 650 c 0
 639 634.626953125 629.34375 621.4921875 615.770507812 616.334960938 c 2
 568.745117188 598.46484375 l 1
 546.944335938 585.38671875 523.747070312 571.333007812 505.651367188 557.430664062 c 0
 491.010742188 546.182617188 480.407226562 535.119140625 475.977539062 527.659179688 c 0
 471.708984375 520.469726562 466.874023438 516.626953125 457.6796875 501.6953125 c 0
 453.255859375 494.512695312 450.313476562 486.973632812 450.30078125 486.912109375 c 0
 449.538085938 483.094726562 449 467.536132812 449 460 c 0
 449 457.658203125 449.006835938 455.068359375 449.006835938 452.31640625 c 0
 449.006835938 441.499023438 448.89453125 428.161132812 447.82421875 417.416992188 c 0
 447.811523438 417.295898438 447.786132812 416.67578125 447.786132812 415.756835938 c 0
 447.786132812 401.965820312 450 384.25 450 368 c 0
 450 351.203125 456 301.536132812 456 282 c 0
 456 240.900390625 454.758789062 212.120117188 439.848632812 185.7109375 c 0
 427.815429688 164.397460938 410.017578125 151.77734375 391.58203125 139.793945312 c 0
 369.5390625 125.465820312 319.447265625 93.685546875 298.483398438 81.107421875 c 0
 277.995117188 68.814453125 257.848632812 64.8896484375 241.795898438 61.3037109375 c 0
 224.6015625 57.4638671875 211.611328125 54.1201171875 201.340820312 48.0224609375 c 0
 190.982421875 41.8720703125 178.286132812 34.9892578125 168.483398438 29.107421875 c 0
 166.99609375 28.21484375 165.438476562 27.4267578125 163.822265625 26.7529296875 c 2
 139.822265625 16.7529296875 l 2
 135.565429688 14.9794921875 130.896484375 14 126 14 c 0
 106.130859375 14 90 30.130859375 90 50 c 0
 90 64.97265625 99.16015625 77.8232421875 112.177734375 83.2470703125 c 2
 133.822265625 92.2646484375 l 1
 143.620117188 98.056640625 155.228515625 104.377929688 164.659179688 109.977539062 c 0
 187.138671875 123.325195312 209.173828125 127.8046875 226.055664062 131.575195312 c 0
 242.518554688 135.251953125 254.022460938 138.396484375 261.516601562 142.892578125 c 0
 280.552734375 154.314453125 331.385742188 186.53515625 352.41796875 200.206054688 c 0
 373.977539062 214.219726562 376.381835938 217.698242188 379.138671875 225.626953125 c 0
 381.823242188 233.348632812 384 250.502929688 384 282 c 0
 384 284.606445312 382.8984375 299.19140625 381.594726562 314.004882812 c 0
 379.938476562 332.809570312 378 353.17578125 378 368 c 0
EndSplineSet
EndChar

StartChar: J
Encoding: 74 74 12
Width: 624
Flags: HW
LayerCount: 2
Back
Fore
SplineSet
162.947265625 575.16796875 m 1
 166.809570312 569.6484375 170.685546875 564.525390625 174.548828125 559.2578125 c 0
 181.862304688 549.284179688 237.153320312 482.458007812 248.30859375 470.016601562 c 0
 278.21875 436.658203125 288.615234375 429.911132812 316.838867188 403.643554688 c 1
 335.452148438 419.861328125 357.615234375 445.315429688 374.490234375 464.561523438 c 0
 387.6171875 479.532226562 401.203125 495.040039062 417.624023438 512.018554688 c 0
 430.682617188 525.521484375 438.584960938 541.501953125 452.858398438 557.202148438 c 0
 455.560546875 560.173828125 464.16796875 574.078125 469.477539062 583 c 1
 413.821289062 583 l 1
 300.567382812 581.012695312 l 1
 254.662109375 579.096679688 208.540039062 577.397460938 162.947265625 575.16796875 c 1
77.5 599 m 0
 77.5 605.255859375 79.1103515625 610.645507812 80.19921875 616.087890625 c 0
 83.3876953125 632.030273438 97.119140625 644.184570312 113.802734375 644.9609375 c 0
 174.911132812 647.923828125 236.377929688 650.528320312 298.008789062 652.969726562 c 0
 298.291015625 652.981445312 298.57421875 652.989257812 298.857421875 652.994140625 c 2
 412.857421875 654.994140625 l 2
 413.071289062 654.998046875 413.28515625 655 413.5 655 c 2
 505.5 655 l 2
 509.639648438 655 513.615234375 654.245117188 517.275390625 653.030273438 c 0
 518.950195312 652.473632812 534.549804688 648.576171875 544.11328125 632.9921875 c 0
 551.075195312 621.6484375 551.5 611.397460938 551.5 603 c 0
 551.5 593.328125 549.682617188 587.24609375 547.853515625 581.000976562 c 0
 545.192382812 571.916992188 542.208007812 563.254882812 537.591796875 556.2421875 c 0
 526.92578125 540.040039062 520.944335938 525.080078125 506.141601562 508.797851562 c 0
 501.866210938 504.094726562 497.791992188 498.446289062 492.724609375 491.265625 c 0
 486.891601562 482.998046875 479.701171875 472.657226562 469.375976562 461.981445312 c 0
 441.874023438 433.544921875 421.876953125 408.34375 394.778320312 379.404296875 c 0
 381.848632812 365.596679688 370.51953125 354.556640625 358.0703125 344.224609375 c 1
 367.353515625 241.268554688 l 2
 367.450195312 240.19140625 367.5 239.1015625 367.5 238 c 0
 367.5 237.737304688 367.497070312 237.474609375 367.491210938 237.212890625 c 2
 365.491210938 144.212890625 l 2
 365.477539062 143.573242188 365.447265625 142.938476562 365.400390625 142.307617188 c 2
 359.4609375 62.1171875 l 2
 359.021484375 51.6669921875 354.977539062 43.6015625 350.793945312 37.8828125 c 0
 342.103515625 26.0068359375 330.755859375 19.7080078125 317.452148438 17.490234375 c 0
 316.094726562 17.2646484375 314.712890625 17.1142578125 313.30859375 17.044921875 c 2
 192.30859375 11.044921875 l 2
 191.709960938 11.0146484375 191.106445312 11 190.5 11 c 0
 170.630859375 11 154.5 27.130859375 154.5 47 c 0
 154.5 66.2626953125 169.661132812 82.01171875 188.69140625 82.955078125 c 2
 289.172851562 87.9375 l 1
 293.529296875 146.7421875 l 1
 295.46484375 236.75 l 1
 286.779296875 333.083007812 l 2
 285.993164062 333.723632812 285.235351562 334.396484375 284.506835938 335.099609375 c 0
 245.166015625 373.072265625 233.88671875 378.267578125 194.69140625 421.983398438 c 0
 177.994140625 440.60546875 126.603515625 503.086914062 113.422851562 520.8359375 c 0
 107.020507812 529.45703125 97.80078125 541.629882812 90.056640625 555.99609375 c 0
 83.958984375 567.307617188 77.5 580.845703125 77.5 599 c 0
EndSplineSet
EndChar

StartChar: G
Encoding: 71 71 13
Width: 792
Flags: HW
LayerCount: 2
Back
Fore
SplineSet
421.5 119 m 0
 441.369140625 119 457.5 102.869140625 457.5 83 c 0
 457.5 69.1435546875 449.654296875 57.10546875 438.16796875 51.087890625 c 0
 413.178710938 37.9990234375 383.62109375 27.69921875 360.970703125 23.5810546875 c 0
 348.790039062 21.3662109375 334.520507812 18.5625 317.889648438 18.5625 c 0
 304.536132812 18.5625 289.7265625 20.595703125 274.891601562 26.6650390625 c 0
 240.205078125 40.85546875 213.279296875 51.9873046875 188.930664062 74.9130859375 c 0
 169.641601562 93.076171875 155.012695312 115.831054688 138.556640625 147.392578125 c 0
 124.666015625 174.03515625 116.913085938 199.512695312 114.489257812 207.177734375 c 0
 114.069335938 208.384765625 113.711914062 209.622070312 113.419921875 210.884765625 c 2
 98.419921875 275.884765625 l 2
 98.1298828125 277.141601562 97.9052734375 278.424804688 97.7509765625 279.729492188 c 2
 88.7509765625 355.729492188 l 2
 88.5849609375 357.129882812 88.5 358.5546875 88.5 360 c 0
 88.5 361.435546875 88.583984375 362.8515625 88.748046875 364.243164062 c 2
 94.72265625 415.02734375 l 2
 96.7890625 434.616210938 99.78125 456.912109375 108.01171875 484.346679688 c 0
 119.616210938 523.029296875 143.598632812 552.7421875 168.833007812 583.024414062 c 0
 189.0859375 607.328125 209.767578125 626.654296875 232.836914062 641.665039062 c 0
 261.732421875 660.46875 293.211914062 671.732421875 329.384765625 680.080078125 c 0
 350.126953125 684.866210938 369.515625 687.270507812 387.88671875 687.270507812 c 0
 446.403320312 687.270507812 486.759765625 662.12890625 515.208984375 630.844726562 c 0
 539.047851562 604.630859375 555.94921875 573.606445312 571.720703125 542.064453125 c 0
 573.135742188 539.234375 574.188476562 536.192382812 574.818359375 532.999023438 c 2
 589.818359375 456.999023438 l 2
 590.220703125 454.962890625 590.450195312 452.866210938 590.493164062 450.72265625 c 2
 593.142578125 316.450195312 l 1
 638.6796875 314.981445312 l 2
 659.263671875 314.317382812 676.849609375 307.787109375 688.51953125 294.01171875 c 0
 700.8515625 279.456054688 701.822265625 263.3515625 701.822265625 251.405273438 c 0
 701.822265625 243.733398438 701.208007812 236.038085938 700.310546875 227.290039062 c 0
 699.537109375 219.745117188 697.895507812 213.780273438 695.822265625 206.834960938 c 0
 693.264648438 198.267578125 689.888671875 188.747070312 685.890625 178.356445312 c 0
 670.58984375 138.58203125 646.005859375 84.236328125 624.53125 50.2939453125 c 0
 620.557617188 44.013671875 616.94921875 38.642578125 611.844726562 33.0859375 c 0
 609.525390625 30.5615234375 606.895507812 27.8232421875 602.205078125 24.71875 c 0
 598.603515625 22.3359375 592.924804688 18.7939453125 583.096679688 18.0927734375 c 0
 581.420898438 17.97265625 579.736328125 17.9111328125 578.045898438 17.9111328125 c 0
 554.901367188 17.9111328125 537.241210938 30.1416015625 526.67578125 41.349609375 c 0
 514.825195312 53.9208984375 510.458984375 63.6533203125 502.296875 74.955078125 c 0
 486.684570312 96.5712890625 476.991210938 112.415039062 463.32421875 133.37109375 c 0
 459.641601562 139.018554688 457.5 145.76171875 457.5 153 c 0
 457.5 172.869140625 473.630859375 189 493.5 189 c 0
 506.129882812 189 517.25 182.481445312 523.67578125 172.62890625 c 0
 536.747070312 152.5859375 546.701171875 136.432617188 560.703125 117.044921875 c 0
 564.85546875 111.295898438 567.625 106.6953125 571.15234375 101.483398438 c 1
 589.4296875 134.333984375 618.592773438 200.009765625 626.765625 227.263671875 c 1
 628.689453125 234.709960938 l 2
 629.015625 237.889648438 629.267578125 240.745117188 629.450195312 243.240234375 c 1
 570.65625 244.915039062 512.473632812 247.201171875 454.840820312 250.038085938 c 0
 435.741210938 250.90625 420.5 266.6875 420.5 286 c 0
 420.5 305.869140625 436.630859375 322 456.5 322 c 0
 457.055664062 322 457.609375 321.987304688 458.159179688 321.961914062 c 2
 521.076171875 319.102539062 l 1
 518.5703125 446.098632812 l 1
 505.125976562 514.21484375 l 1
 490.967773438 542.155273438 477.006835938 565.856445312 461.93359375 582.431640625 c 0
 450.9296875 594.532226562 439.702148438 602.89453125 426.489257812 608.305664062 c 0
 415.8828125 612.6484375 403.53515625 615.270507812 387.88671875 615.270507812 c 0
 375.959960938 615.270507812 361.943359375 613.688476562 345.615234375 609.919921875 c 0
 314.0234375 602.629882812 291.81640625 594.147460938 272.03125 581.2734375 c 0
 256.155273438 570.942382812 241.096679688 557.291015625 224.166992188 536.975585938 c 0
 199.401367188 507.2578125 183.383789062 484.970703125 176.98828125 463.653320312 c 0
 170.272460938 441.264648438 168.444335938 425.392578125 166.251953125 406.756835938 c 2
 160.752929688 360.013671875 l 1
 169.018554688 290.213867188 l 1
 183.217773438 228.68359375 l 2
 185.24609375 222.233398438 192.220703125 200.21484375 202.443359375 180.607421875 c 0
 217.490234375 151.749023438 228.147460938 136.862304688 238.266601562 127.334960938 c 0
 250.677734375 115.6484375 266.956054688 107.715820312 302.108398438 93.3349609375 c 0
 306.866210938 91.388671875 311.650390625 90.5625 317.889648438 90.5625 c 0
 325.665039062 90.5625 335.802734375 92.1962890625 348.029296875 94.4189453125 c 0
 360.009765625 96.59765625 387.821289062 106.000976562 404.83203125 114.912109375 c 0
 409.817382812 117.522460938 415.487304688 119 421.5 119 c 0
295.5 378 m 2
 295.5 397.869140625 311.630859375 414 331.5 414 c 0
 351.369140625 414 367.5 397.869140625 367.5 378 c 2
 367.5 363 l 2
 367.5 343.130859375 351.369140625 327 331.5 327 c 0
 311.630859375 327 295.5 343.130859375 295.5 363 c 2
 295.5 378 l 2
EndSplineSet
EndChar

StartChar: V
Encoding: 86 86 14
Width: 700
Flags: HW
LayerCount: 2
Back
Fore
SplineSet
230.541015625 538.790039062 m 0
 263.360351562 538.790039062 313.111328125 539.704101562 347.22265625 539.704101562 c 0
 364.265625 539.704101562 378.333007812 539.5703125 388.348632812 538.924804688 c 0
 426.032226562 536.493164062 498.48828125 522.421875 524.435546875 517.021484375 c 0
 540.51171875 513.676757812 552.491210938 511.623046875 564.733398438 500.479492188 c 0
 578.708984375 487.7578125 581.331054688 470.918945312 581.942382812 460.049804688 c 0
 582.0625 457.919921875 582.134765625 455.703125 582.134765625 453.405273438 c 0
 582.134765625 432.04296875 576.166015625 413.329101562 562.614257812 378.094726562 c 0
 539.033203125 316.783203125 522.475585938 294.508789062 497.098632812 244.694335938 c 0
 478.989257812 209.145507812 461.346679688 176.2578125 438.741210938 139.266601562 c 0
 422.288085938 112.34375 408.333007812 80.236328125 387.89453125 53.8603515625 c 0
 381.46875 45.568359375 374.390625 37.5380859375 364.430664062 30.69140625 c 0
 356.58984375 25.3017578125 345.829101562 20 332 20 c 0
 302.197265625 20 282.359375 39.662109375 269.498046875 56.0546875 c 0
 253.20703125 76.818359375 242.272460938 100.627929688 234.893554688 117.844726562 c 0
 223.45703125 144.53125 211.39453125 178.356445312 199.244140625 201.037109375 c 0
 184.205078125 229.111328125 163.9609375 267.3984375 149.987304688 301.600585938 c 1
 121.37109375 362.779296875 l 2
 119.208984375 367.403320312 118 372.561523438 118 378 c 0
 118 397.869140625 134.130859375 414 154 414 c 0
 168.430664062 414 180.889648438 405.491210938 186.62890625 393.220703125 c 2
 215.62890625 331.220703125 l 2
 215.888671875 330.6640625 216.135742188 330.099609375 216.368164062 329.52734375 c 0
 228.275390625 300.216796875 247.922851562 262.650390625 262.755859375 234.962890625 c 0
 278.286132812 205.971679688 288.404296875 175.791992188 301.106445312 146.155273438 c 0
 308.064453125 129.918945312 318.110351562 108.8984375 329.603515625 96.3896484375 c 1
 347.29296875 117.9140625 361.711914062 151.291992188 377.258789062 176.733398438 c 0
 398.653320312 211.7421875 415.200195312 242.55859375 432.901367188 277.305664062 c 0
 457.66796875 325.920898438 473.625976562 347.329101562 495.385742188 403.905273438 c 0
 504.606445312 427.87890625 508.124023438 439.754882812 509.418945312 446.591796875 c 1
 486.625976562 451.3359375 411.012695312 465.310546875 383.651367188 467.075195312 c 0
 377.44921875 467.475585938 363.528320312 467.704101562 347.22265625 467.704101562 c 0
 313.288085938 467.704101562 263.650390625 466.790039062 230.541015625 466.790039062 c 0
 194.374023438 466.790039062 159.946289062 468.205078125 124.177734375 469.008789062 c 0
 104.6875 469.447265625 89 485.40625 89 505 c 0
 89 524.869140625 105.130859375 541 125 541 c 0
 125.275390625 541 125.548828125 540.997070312 125.822265625 540.991210938 c 0
 155.702148438 540.319335938 185.671875 540.211914062 215.521484375 538.96875 c 0
 218.024414062 538.864257812 223.576171875 538.790039062 230.541015625 538.790039062 c 0
EndSplineSet
EndChar

StartChar: R
Encoding: 82 82 15
Width: 828
Flags: HW
LayerCount: 2
Back
Fore
SplineSet
70 378 m 0
 70 435.027628784 90.6793687426 476.868133824 117.794130014 518.582576419 c 0
 142.982331833 557.333122232 182.88383171 593.764799546 222.716814226 623.029847925 c 0
 245.239761112 639.577319107 263.064877961 651.312573099 282.823390022 659.352834239 c 0
 307.815680994 669.522858444 331.831869432 671.673441307 362.457045238 672.96746282 c 0
 376.781957016 673.572740782 390.423158931 673.940038494 403.523061279 673.940038494 c 0
 456.592147573 673.940038494 502.522631847 668.072866342 543.261971737 644.024345254 c 0
 568.112910889 629.354472677 606.385540744 601.329037267 629.784896163 579.099947818 c 0
 667.404892807 543.361430431 701.136084474 498.834989969 717.894583395 452.150600117 c 0
 729.916681687 418.659373935 737.151542701 379.037859204 737.151542701 336.046859463 c 0
 737.151542701 325.862251516 736.739989927 315.505189487 735.87790406 305.016673322 c 0
 732.438026395 263.16560735 716.373211352 215.25472867 706.161800258 184.621472088 c 0
 694.363759113 149.228477114 675.104574659 115.38435335 655.501780629 90.0160316641 c 0
 638.322985968 67.7846503384 611.218972129 45.3487810546 582.483275922 28.1073633298 c 0
 580.417105068 26.8676608178 578.216564619 25.829340439 575.908878333 25.0196259526 c 2
 518.908878333 5.01962595263 l 2
 515.549132165 3.84076764824 511.962276814 3.14646851371 508.23232348 3.02073974963 c 2
 419.23232348 0.0207397496292 l 2
 418.823233373 0.00695019547194 418.412421934 7.1054273576e-15 418 6.06806271897e-15 c 0
 417.388391635 6.35602681598e-15 416.78032506 0.0152848205094 416.17616175 0.0454929859905 c 2
 336.17616175 4.04549298599 l 2
 333.60858452 4.17387184753 331.111503604 4.57177909781 328.712664113 5.21146962898 c 0
 302.473469368 12.2085882276 279.37900078 19.9250788242 257.53749269 32.3911152908 c 0
 240.088560071 42.3500901675 224.048584188 55.1835512375 208.833592719 71.2852490165 c 0
 162.692466724 120.115408894 116.94182897 173.126091994 96.7733915682 234.817782868 c 0
 82.242813215 279.264257831 70 322.519039972 70 378 c 0
153.954680335 294 m 1
 157.185298846 282.246480372 160.980397659 270.170626555 165.226608432 257.182217132 c 0
 179.05817103 214.873908006 216.610394378 167.867419814 261.166407281 120.714750984 c 0
 272.318181264 108.913068758 282.121426234 101.263438223 293.150527448 94.9685808643 c 0
 306.200767333 87.5201590041 321.828595923 81.7445726125 343.685796456 75.7614091037 c 1
 377.784879108 74.0564549711 l 1
 376.235809639 88.9662486134 374.458542424 103.862878641 373.140509145 118.800589145 c 0
 371.619010817 136.044236855 371.214815615 153.648377797 370.820704115 169.628188576 c 0
 370.360802156 188.275566936 369.721956698 205.134175306 368.430443844 213.421382787 c 0
 364.18441938 240.666706432 363.067118562 264.948723225 362.730016926 287.893857796 c 1
 258.925599464 294 l 1
 153.954680335 294 l 1
658.320309727 277.572902816 m 1
 572.389361525 279.005085286 l 2
 572.135508654 279.009316168 571.88229169 279.016180089 571.629736785 279.025650898 c 2
 434.81338899 284.156263941 l 1
 435.210310402 264.563971305 436.301115925 245.551108694 439.569556156 224.578617213 c 0
 444.156990311 195.142581388 442.141063813 156.33130515 444.83569144 125.470553504 c 2
 450.275878794 73.1087502147 l 1
 500.258715718 74.7935649424 l 1
 548.489311738 91.7165810898 l 1
 568.89859399 104.510529546 590.319759013 123.400078461 598.498219371 133.983968336 c 0
 612.895425341 152.61564665 629.216319012 181.513710386 637.838199742 207.378527912 c 0
 644.311774786 226.798633858 652.707558099 253.550693597 658.320309727 277.572902816 c 1
664.850504288 349.474250283 m 1
 663.528642484 378.942808527 657.953248093 405.986868649 650.105416605 427.849399883 c 0
 638.863915526 459.165010031 611.561904068 497.120991444 580.215103837 526.900052182 c 0
 563.614204712 542.670694791 524.598026611 571.432636698 506.738028263 581.975654746 c 0
 483.625828278 595.618836747 454.079579104 601.498334258 408.826317013 601.915959028 c 1
 422.669723642 451.267122191 l 1
 429.993323551 414.776712059 432.756749563 383.789516354 433.832908038 356.244499921 c 1
 510.19215981 353.341136396 586.182676498 350.069037789 664.850504288 349.474250283 c 1
260 366 m 2
 260.719404474 366 261.433908653 365.978852464 262.142924265 365.937145663 c 2
 361.642105336 360.084252659 l 1
 360.509241166 383.432395461 357.896759161 408.540893321 351.726629875 438.774526823 c 0
 351.466350669 440.049894931 351.273594564 441.349709095 351.152264429 442.670066447 c 2
 336.783445754 599.036622618 l 1
 325.445541337 597.718094856 317.647325656 595.778163258 309.916728334 592.632378745 c 0
 299.334748608 588.326291317 286.315794444 580.422680893 265.283185774 564.970152075 c 0
 230.329211066 539.289680861 195.545011917 506.092659018 178.205869986 479.417423581 c 0
 153.320127597 441.132193558 142 416.972371216 142 378 c 0
 142 373.908427536 142.076742045 369.913983113 142.22702483 366 c 1
 260 366 l 2
EndSplineSet
EndChar

StartChar: K
Encoding: 75 75 16
Width: 768
Flags: HW
LayerCount: 2
Back
Fore
SplineSet
119.928932188 278.229401358 m 0
 119.928932188 264.894549992 121.740404491 243.658338428 122.794967847 227.190352667 c 0
 123.792804486 211.608207246 125.111933281 189.281591044 130.220371993 179.06471362 c 0
 135.298511989 168.908433629 140.529266904 158.816986701 145.456184012 148.584158861 c 0
 146.043729305 147.363872483 149.981791219 142.158257371 157.549629965 136.381686598 c 0
 172.040145215 125.321000754 193.0671589 115.756974189 209.342065272 105.360850957 c 0
 225.135804923 95.2720885426 251.723849653 89.9241081236 280.520965973 89.9241081236 c 0
 316.010682567 89.9241081236 337.112901233 108.61150554 365.836895342 141.615774102 c 0
 384.67293574 163.258645288 398.212262453 186.608934411 416.182884247 210.56976347 c 0
 427.876743536 226.161575855 433.359465282 246.402780912 439.253636783 284.433766438 c 1
 447.761978924 377.080158644 l 1
 439.904876749 432.079873873 l 1
 419.436806054 487.254673136 l 1
 396.769621644 524.428855568 l 2
 389.362581366 535.199124783 373.524743504 560.535114938 366.686608238 570.108204753 c 0
 362.651979353 575.756508449 354.886449616 583.028602344 345.966338462 588.76603658 c 1
 330.619733617 589.993764968 l 1
 318.112476796 589.873132445 293.662455581 588.03773375 283.702073626 586.449904126 c 0
 254.486012267 581.792439389 238.894373219 575.497788542 227.030464824 567.505354107 c 0
 212.223274192 557.530100055 198.982644534 540.854981409 176.574970421 510.553828513 c 0
 175.188550869 508.679019435 173.769419452 506.759958694 172.31507076 504.796991588 c 2
 136.688094092 424.407916029 l 1
 126.738827026 368.330228931 l 1
 124.219900352 337.968138282 119.928932188 305.742564485 119.928932188 278.229401358 c 0
706.472222222 421.37962963 m 0
 706.472222222 387.440180046 703 348.857430367 703 313 c 0
 702.999999965 291.861433066 701.842760485 273.515955372 698.738780083 249.633308726 c 0
 696.403827896 228.966081894 692.515803512 220.349929436 689.468142897 202.805879257 c 0
 685.438744493 179.610393692 675.990825174 157.994088452 659.257337916 143.438472071 c 0
 648.483677829 134.067008679 633.427829603 127.323558812 616.693846397 127.006566781 c 0
 611.044187501 126.899545229 607.582993208 125.618865907 599.473869623 125.618865907 c 0
 590.571018987 125.618865907 580.917332229 127.55148776 571.02924474 131.041400991 c 0
 551.263805528 138.017438361 543.312014683 146.782288992 530.934017622 155.113900043 c 0
 514.729366311 166.021226266 500.680945892 177.683280652 487.90229501 190.184874786 c 1
 484.000789557 182.423899909 479.375176651 174.840984394 473.817115753 167.43023653 c 0
 454.680939248 141.915334524 442.769021719 120.35873756 420.163104658 94.3842258976 c 0
 390.165393321 59.916438533 348.662818061 17.9241081236 280.520965973 17.9241081236 c 0
 278.619053718 17.9241081236 276.705849555 17.9561314291 274.781308444 18.0202827994 c 0
 242.614932868 19.0924953186 204.521822649 23.0074945252 170.657934728 44.6391490427 c 0
 168.316906389 46.1345566693 163.242475315 48.9764415503 157.145891923 52.3172222687 c 0
 130.455246166 66.9430526669 96.0083837176 85.5858577677 80.6760959286 117.142350536 c 2
 66.0816102768 146.33132184 l 2
 52.6060549883 171.186913564 52.9823461184 202.538978354 50.1490597154 233.705128787 c 0
 48.6071150107 250.666520539 47.9289321881 264.966956335 47.9289321881 278.229401358 c 0
 47.9289321881 312.235977327 52.3429565737 342.077837579 55.1214314198 375.9752307 c 0
 55.2141181021 377.106008225 55.3591589553 378.222055693 55.5541226075 379.320941733 c 2
 66.5541226075 441.320941733 l 2
 67.0647231751 444.198872205 67.9177398696 446.959093936 69.0694975546 449.557931789 c 2
 108.069497555 537.557931789 l 2
 110.673527553 543.433691786 115.05420887 548.440505561 118.648888549 553.301471408 c 0
 140.38649097 582.696508627 158.095652475 607.873763835 186.874689026 627.261519967 c 0
 221.117385007 650.330014209 273.289156867 662.000046852 331.870288817 662.000046852 c 0
 341.379059949 662.000046852 350.608437317 660.627981358 359.904760125 659.884275533 c 0
 364.915141717 659.483445006 369.637630148 658.054862811 373.861057129 655.809697241 c 0
 394.328217337 644.929394672 412.372716919 630.008173138 425.313391762 611.891795247 c 0
 433.086082622 601.01036854 449.191793716 575.185425324 456.619335294 564.456754156 c 0
 457.015774476 563.884119782 457.396042692 563.29945492 457.759477225 562.703422287 c 2
 482.759477225 521.703422287 l 2
 483.949498198 519.75178789 484.959036297 517.67827357 485.764825976 515.50614487 c 2
 506.547876637 459.482269176 l 1
 529.764443338 478.933924076 555.756177204 496.1058064 582.440450813 509.968149264 c 0
 589.666989262 513.722298811 601.169646413 519.068338998 614.413093026 523.679168039 c 0
 625.005709019 527.367085759 636.128093937 531.070238592 650.743466179 531.070238592 c 0
 657.997108907 531.070238592 668.895469605 530.572836152 680.56976347 521.817115753 c 0
 692.581322584 512.808446417 698.764132346 499.864862941 701.371496747 489.886923381 c 0
 704.65172749 477.334038913 704.498992942 467.276872391 704.838048727 457.488192905 c 0
 705.250200549 445.589200829 706.472222222 433.848544251 706.472222222 421.37962963 c 0
631 313 m 0
 631 349.947747365 634.472222222 388.417082879 634.472222222 421.37962963 c 0
 634.472222222 433.088679747 633.251951128 444.294604267 632.923403815 453.755838742 c 1
 625.751492846 450.9567873 618.734662166 447.681305594 615.559549187 446.031850736 c 0
 594.13194161 434.900318833 572.91713043 420.836921087 553.814889386 405.159989482 c 0
 540.115925625 393.917449015 524.779544592 375.851888206 519.352289055 369.275203793 c 1
 510.847916306 276.672033862 l 2
 510.593947048 273.906590831 510.086724827 271.282166128 509.668784177 268.631368427 c 0
 517.311179991 261.523714054 529.61177328 250.400167944 533.795952275 246.101045168 c 0
 545.111107983 234.4751521 556.615021511 224.613019802 571.065982378 214.886099957 c 0
 580.159044276 208.765573784 591.291092226 198.967329696 599.562443425 197.627865164 c 0
 603.49400899 197.954503996 606.86018516 198.653245607 612.932835676 198.918813864 c 0
 615.585322124 202.885918683 617.449750133 208.964903857 618.531857103 215.194120743 c 0
 621.585441435 232.772271172 625.144616723 242.139984131 627.303750804 258.693345421 c 0
 630.167804398 280.651089641 631 294.234839077 631 313 c 0
EndSplineSet
EndChar

StartChar: D
Encoding: 68 68 17
Width: 708
Flags: HW
LayerCount: 2
Back
Fore
SplineSet
186.282226562 594.987304688 m 1
 185.091796875 586.510742188 184.513671875 567.02734375 184.513671875 566.069335938 c 0
 184.513671875 565.948242188 184.513671875 565.877929688 184.513671875 565.862304688 c 0
 184.513671875 565.794921875 184.514648438 565.727539062 184.514648438 565.66015625 c 0
 184.514648438 565.033203125 184.499023438 564.411132812 184.466796875 563.791992188 c 0
 179.153320312 457.995117188 172.200195312 352.576171875 167.77734375 247.151367188 c 0
 165.4453125 191.588867188 165.770507812 135.893554688 164.682617188 80.3505859375 c 0
 165.435546875 69.62109375 167.25 62.6845703125 168.373046875 59.5361328125 c 0
 168.57421875 59.5302734375 168.779296875 59.5283203125 168.98828125 59.5283203125 c 0
 174.208007812 59.5283203125 182.92578125 61.5146484375 193.7265625 66.3935546875 c 0
 212.567382812 74.9033203125 238.219726562 92.541015625 258.328125 104.819335938 c 0
 311.485351562 137.272460938 357.17578125 174.162109375 407.697265625 210.212890625 c 0
 435.844726562 230.298828125 480.2265625 268.072265625 514.33984375 307.04296875 c 0
 533.201171875 328.590820312 545.844726562 351.96875 549.879882812 374.6953125 c 0
 550.646484375 379.014648438 550.96484375 382.875976562 550.96484375 386.345703125 c 0
 550.96484375 402.025390625 545.137695312 413.7890625 532.225585938 426.8125 c 0
 515.91796875 443.259765625 488.309570312 458.739257812 460.08203125 473.754882812 c 0
 444.06640625 482.274414062 431.6953125 489.405273438 414.818359375 498.126953125 c 0
 399.424804688 506.08203125 381.228515625 515.333007812 363.973632812 527.499023438 c 0
 347.112304688 539.38671875 325.079101562 543.836914062 302.534179688 552.862304688 c 0
 269.966796875 565.484375 245.845703125 576.16015625 210.334960938 586.743164062 c 0
 200.803710938 589.583984375 194.33984375 592.33203125 186.282226562 594.987304688 c 1
174.747070312 670.166992188 m 0
 193.349609375 670.166992188 206.685546875 664.310546875 217.084960938 660.506835938 c 0
 222.159179688 658.651367188 226.71484375 657.005859375 230.905273438 655.756835938 c 0
 270.627929688 643.91796875 295.109375 633.432617188 329.09765625 619.795898438 c 0
 357.140625 608.545898438 376.385742188 606.8359375 405.395507812 586.381835938 c 0
 423.119140625 573.885742188 449.6953125 561.862304688 470.368164062 550.106445312 c 0
 477.416015625 546.098632812 485.3671875 541.862304688 493.822265625 537.364257812 c 0
 521.948242188 522.40234375 555.987304688 505.088867188 583.346679688 477.494140625 c 0
 605.3671875 455.283203125 622.96484375 424.614257812 622.96484375 386.345703125 c 0
 622.96484375 378.36328125 622.228515625 370.255859375 620.770507812 362.044921875 c 0
 613.776367188 322.650390625 593.55859375 288.249023438 568.529296875 259.65625 c 0
 529.42578125 214.982421875 482.545898438 175.181640625 449.453125 151.56640625 c 0
 397.23046875 114.30078125 353.294921875 78.44140625 295.771484375 43.3212890625 c 0
 272.33984375 29.015625 250.72265625 13.1240234375 223.305664062 0.7392578125 c 0
 207.243164062 -6.515625 189.336914062 -12.4716796875 168.98828125 -12.4716796875 c 0
 152.487304688 -12.4716796875 140.788085938 -9.3701171875 128.694335938 -1.5693359375 c 0
 104.56640625 13.994140625 94.798828125 42.734375 92.7255859375 77.3369140625 c 0
 92.681640625 78.0595703125 92.66015625 78.787109375 92.66015625 79.51953125 c 0
 92.66015625 97.9140625 93.3583984375 116.307617188 93.7109375 134.688476562 c 2
 95.80078125 249.138671875 l 2
 95.80859375 249.573242188 95.82421875 250.004882812 95.84765625 250.435546875 c 0
 101.568359375 355.653320312 107.212890625 460.946289062 112.513671875 566.583007812 c 0
 112.518554688 571.47265625 112.629882812 590.2890625 115.575195312 609.634765625 c 0
 119.294921875 634.072265625 127.984375 657.57421875 150.721679688 665.946289062 c 0
 158.797851562 668.918945312 167.091796875 670.166992188 174.747070312 670.166992188 c 0
267.174804688 333.490234375 m 0
 267.174804688 353.359375 283.305664062 369.490234375 303.174804688 369.490234375 c 0
 323.043945312 369.490234375 339.174804688 353.359375 339.174804688 333.490234375 c 0
 339.174804688 313.62109375 323.043945312 297.490234375 303.174804688 297.490234375 c 0
 283.305664062 297.490234375 267.174804688 313.62109375 267.174804688 333.490234375 c 0
EndSplineSet
EndChar

StartChar: I
Encoding: 73 73 18
Width: 736
Flags: HW
LayerCount: 2
Back
Fore
SplineSet
358.469621626 311.457309465 m 0
 368.935643492 311.457309465 378.528663421 311.15845596 388.46768815 311.15845596 c 0
 428.660795226 311.15845596 459.667926327 322.653215163 497.289803415 334.377305499 c 0
 524.789734115 342.947097776 546.584491734 355.554745271 559.680939854 372.218433842 c 0
 565.848648683 380.066117288 571.730215218 392.731301051 574.059065307 402.121293231 c 1
 574.938157176 459.262264704 l 1
 564.399539039 506.280714854 l 1
 534.402485308 549.511762878 l 2
 533.722358352 550.491945844 533.089648904 551.507467529 532.507688324 552.554996572 c 0
 529.904151015 557.241363729 521.112339755 565.971430275 510.380985619 575.125715038 c 0
 505.954501677 578.901687202 501.34076092 582.75753408 496.5491475 587.5491475 c 0
 486.757537744 597.340757256 466.175651553 611.089166954 445.014613745 620.435144666 c 0
 416.754976464 632.916287726 403.149821869 633.897462568 371.656421198 633.897462568 c 0
 329.588949876 633.897462568 315.324244271 626.311735611 283.049564153 612.729733043 c 0
 274.238120161 609.021654311 266.306963429 605.630650933 258.97075526 603.041400991 c 0
 227.65616333 591.989192075 192.489113725 574.833285597 166.618935897 543.918344268 c 0
 164.309303017 541.158325939 158.035875568 532.113780495 152.411974481 523.093238218 c 0
 145.386262664 511.824240151 138.161865346 498.938625869 136.422333566 495.345731198 c 0
 130.384490408 482.87494178 127.995778082 472.856987014 127.995778082 459.080496321 c 0
 127.995778082 450.939418564 128.506984136 444.097308592 129.800853228 431.805552219 c 0
 131.543946228 415.246168726 132.099903036 417.26160416 135.171318944 410.001893832 c 0
 140.404187127 397.633296308 151.55718505 385.502075326 166.299075461 370.793588467 c 0
 170.12759136 366.973747577 174.127111247 362.991654411 178.172808607 358.707974854 c 0
 194.648882281 341.262720375 213.822650931 326.68042592 236.378203896 319.161908265 c 0
 261.294367025 310.856520555 276.265094627 309.247148444 294.437324541 309.247148444 c 0
 313.257394045 309.247148444 338.452897344 311.457309465 358.469621626 311.457309465 c 0
337.992177583 238.956964385 m 1
 323.553529053 238.249916878 309.122491457 237.247148444 294.437324541 237.247148444 c 0
 270.383037265 237.247148444 244.795077577 240.446997911 213.621796104 250.838091735 c 0
 176.177349069 263.31957408 147.493835734 286.350872315 125.827191393 309.292025146 c 0
 122.79491354 312.502672286 119.283086819 316.014905816 115.455580433 319.833739481 c 0
 101.076766758 334.179972297 81.015946558 353.191842253 68.8286810557 381.998106168 c 0
 65.4058404175 390.088456767 60.4237881007 403.060355156 58.1991467717 424.194447781 c 0
 56.797504093 437.510053228 55.9957780822 447.604847423 55.9957780822 459.080496321 c 0
 55.9957780822 501.80601715 72.3299315623 530.732241928 91.2684445013 561.108959796 c 0
 97.8892949058 571.728574199 104.384114299 581.720279397 111.381064103 590.081655732 c 0
 149.612448775 635.768276903 198.34383667 658.010807925 235.02924474 670.958599009 c 0
 256.51408673 678.541484417 282.996140936 692.048251054 307.51790369 698.736004532 c 0
 328.889568537 704.564640399 350.706999094 705.897462568 371.656421198 705.897462568 c 0
 382.710041063 705.897462568 393.529113624 705.482471369 403.870258438 704.95215625 c 0
 427.883195386 703.720723586 451.581063326 696.255380513 474.04711465 686.333030917 c 0
 502.145336101 673.923178725 528.353573367 657.548131633 547.4508525 638.4508525 c 0
 562.333895546 623.567809454 577.618005642 613.517529577 594.513976204 589.167454355 c 2
 627.597514692 541.488237122 l 2
 630.195233934 537.744465274 632.101212729 533.485161874 633.129829525 528.895948474 c 2
 646.129829525 470.895948474 l 2
 646.699436342 468.354625755 647.046058411 465.71174845 647.004338177 462.999933259 c 2
 645.995666066 397.436246023 l 2
 645.963618085 395.353127267 645.754265732 393.312694781 645.382047671 391.329387231 c 0
 641.161061229 368.838500437 631.056230199 346.53288025 616.319060146 327.781566158 c 0
 590.300273891 294.675723479 553.835770005 276.568862735 518.710196585 265.622694501 c 0
 486.083391374 255.455216394 451.184939364 242.337318089 410.06445842 239.771422299 c 1
 411.304328297 218.616395054 413 200.897603535 413 177 c 0
 413 147.942695907 417.64399093 133.121726658 417.64399093 104.948134313 c 0
 417.64399093 96.920710072 417.15888887 88.2455602245 416 78.7080703947 c 1
 416 41 l 2
 416 21.13106 399.86894 5 380 5 c 0
 360.13106 5 344 21.13106 344 41 c 2
 344 81 l 2
 344 82.6043636907 344.105176608 84.184355918 344.309005024 85.7334518829 c 0
 345.307696647 93.3235082149 345.64399093 99.3667136369 345.64399093 104.948134313 c 0
 345.64399093 113.059250434 344.886361569 120.605595082 343.830383379 130.586330796 c 0
 342.576959408 142.433254828 341 157.378462627 341 177 c 0
 341 198.451093272 339.159322946 217.884823662 337.992177583 238.956964385 c 1
316 469 m 0
 316 488.86894 332.13106 505 352 505 c 0
 371.86894 505 388 488.86894 388 469 c 0
 388 449.13106 371.86894 433 352 433 c 0
 332.13106 433 316 449.13106 316 469 c 0
EndSplineSet
EndChar

StartChar: Z
Encoding: 90 90 19
Width: 720
Flags: HW
LayerCount: 2
Back
Fore
SplineSet
337.252392727 623.069136131 m 0
 324.761758903 622.24943698 294.558469352 622.381915593 286.881533371 621.087418862 c 2
 286.748489174 621.072265636 l 1
 259.914750945 614.362720227 250.027703741 610.388678681 233.837916153 603.3922589 c 0
 210.245964584 593.196992549 194.774183794 586.158504212 180.496194946 570.638951116 c 0
 163.893949136 552.593031758 151.833168094 527.113055679 151.833168094 492.791346112 c 0
 151.833168094 490.749839696 151.876921601 488.670711701 151.967001536 486.55383323 c 0
 153.342478651 454.222709216 164.586071439 427.097269532 183.408499896 393.595019157 c 0
 217.91760095 332.171885242 263.736319902 294.913690277 341.911003734 263.024823845 c 0
 345.084359145 262.156681972 353.376922644 260.252596174 365.066965194 260.252595156 c 0
 375.512684177 260.252595156 389.309819311 262.861846675 397.372677362 264.09797985 c 0
 402.935941257 266.138059184 416.765118263 271.532215921 429.721365152 277.251797515 c 0
 440.636201982 282.070191428 451.747233254 287.762004607 455.067163417 289.975291383 c 0
 468.082168669 298.651683461 476.476827106 304.811522153 484.811683987 312.547237097 c 0
 495.190919451 322.180372738 506.647553414 335.494039061 525.031834629 360.366890117 c 0
 530.31799939 367.518760088 539.60907074 390.639080099 541.698846612 401.087959459 c 0
 542.306117708 404.124146952 542.877997117 411.788568228 542.877997117 418.837853386 c 0
 542.877997117 427.43042686 542.398452363 434.496612703 542.209462201 436.947775703 c 2
 537.08810812 472.797254273 l 1
 521.277668738 507.580220915 l 1
 513.183701869 517.130199875 492.258025045 541.799079436 485.939528033 549.042691917 c 0
 437.065377195 590.070561916 421.237242315 602.220326406 381.293968803 617.310005277 c 1
 381.293968803 617.310005277 373.884162143 619.15613252 364.865353303 620.469611598 c 0
 354.177239439 622.026204513 341.119652365 623.071972683 337.585208426 623.071972683 c 0
 337.431658497 623.071972683 337.316671804 623.069136131 337.252392727 623.069136131 c 0
300 459 m 0
 300 478.86894 316.13106 495 336 495 c 0
 355.86894 495 372 478.86894 372 459 c 0
 372 439.13106 355.86894 423 336 423 c 0
 316.13106 423 300 439.13106 300 459 c 0
79.8331680939 492.791346112 m 0
 79.8331680939 545.116447054 99.1261393523 588.515760077 127.503805054 619.361048884 c 0
 153.279415426 647.37801668 182.41026262 659.614562497 205.329315987 669.519035763 c 0
 208.78192792 671.011082665 212.140214214 672.46303358 215.407544441 673.915180348 c 0
 230.786989094 680.750489082 248.4219181 685.719473887 269.251510826 690.927734364 c 0
 288.012914538 695.618861968 311.643235178 693.5249438 332.575865894 694.919507962 c 0
 334.429484153 695.042998871 336.010697985 695.071972683 337.585208426 695.071972683 c 0
 348.176276023 695.071972683 361.518030585 693.724747054 375.314163952 691.715509154 c 0
 386.463738438 690.09171015 396.085518192 688.702188525 406.706031197 684.689994723 c 0
 456.242435329 665.976242051 484.526343865 644.245480472 534.133535684 602.575439343 c 0
 539.875795086 597.751941446 537.665105245 599.228774209 539.164488281 597.530467884 c 0
 546.745544405 588.943632327 577.382016786 552.725058666 579.486482754 550.23902785 c 0
 581.618018454 547.721019235 583.410103107 544.906681028 584.791798268 541.866951674 c 2
 604.791798268 497.866951674 l 2
 606.175506916 494.822792647 607.147629114 491.552585088 607.636915838 488.127578019 c 2
 613.636915838 446.127578019 l 2
 614.128191486 442.688648485 614.877997117 435.035114961 614.877997117 418.837853386 c 0
 614.877997117 409.175371306 614.595311979 398.382198873 612.301153388 386.912040541 c 0
 609.304188192 371.92721456 604.038823946 357.574485085 598.265248105 344.828748733 c 0
 593.612027669 334.556307096 588.941999303 325.715355792 582.968165371 317.633109883 c 0
 551.602895842 275.197745227 533.752462619 255.903629856 494.932836583 230.024708617 c 0
 474.512501634 216.411151985 445.427091642 205.472230718 422 196.258058385 c 1
 422 161 l 2
 422 157.301048681 421.99588641 153.994621885 421.99588641 151.015078548 c 0
 421.99588641 128.848079017 422.22357193 124.773944975 426.066780798 111.762602019 c 0
 428.01256002 109.392087086 436.954881902 101.441020921 449.204183765 94.7729981125 c 0
 465.067827045 86.1374746361 485.287813254 79.281473744 496.988773689 77.6564687685 c 0
 501.912352812 76.9726923711 505.777816999 76.7038795949 508.620436078 76.7038795949 c 0
 513.505348766 76.7038795949 515.448338137 77.2773712066 517.325144753 78.0628272369 c 0
 519.628912638 79.0269693938 523.482081056 81.3359630066 530.462280751 88.3636905188 c 0
 536.985429366 94.9312549148 546.021311041 99 556 99 c 0
 575.86894 99 592 82.86894 592 63 c 0
 592 53.1097489593 588.003055291 44.1456676611 581.537719249 37.6363094812 c 0
 571.207454123 27.2357061158 559.662131683 17.7181436501 545.072831793 11.6124247748 c 0
 533.435184189 6.74199197936 520.907190113 4.70387959488 508.620436078 4.70387959488 c 0
 501.422364468 4.70387959488 494.323767605 5.32798075154 487.011226311 6.34353123152 c 0
 460.285470405 10.0551484582 431.312858059 21.2908772125 406.353674411 36.3643698707 c 0
 395.203476257 43.0982611866 384.768724929 50.6603728544 375.666297975 60.1424211619 c 0
 368.470564972 67.6382558767 361.363374073 76.8138457817 357.511667844 89.652866546 c 0
 350.31156461 113.653210659 350 131.191571308 350 161 c 2
 350 188.920344952 l 1
 332.755953592 190.443792491 321.066287313 194.081200156 319.516719461 194.552807763 c 0
 318.496222335 194.863393845 317.494878562 195.218126787 316.514916722 195.614778008 c 0
 227.649822668 231.583982744 164.02706767 281.09352961 120.591500104 358.404980843 c 0
 98.5414632792 397.652087355 79.8331680939 438.562980804 79.8331680939 492.791346112 c 0
EndSplineSet
EndChar

StartChar: F
Encoding: 70 70 20
Width: 588
Flags: HW
LayerCount: 2
Back
Fore
SplineSet
306.313000959 370.933990711 m 0
 314.076980391 370.933990711 321.485898122 371.460177273 328.27770482 372.546866345 c 0
 352.412719011 376.408456736 372.438553768 390.577717223 389.897193259 411.760299931 c 0
 410.096404226 436.268020429 424.6046806 468.709534835 433.098592354 492.408404286 c 1
 433.921678305 543.439733288 l 1
 425.908256041 572.822281588 l 1
 399.652787457 597.695883404 l 1
 380.188127363 606.152982262 356.131451439 612.518973424 333.240378781 612.518973424 c 0
 320.969871686 612.518973424 308.947887644 610.775942344 297.593744359 606.910702076 c 0
 259.534573402 593.954558663 226.810017073 574.932060946 206.075435493 551.283865944 c 0
 190.221327029 533.201460718 177.120751283 513.014635296 168.725057663 495.151714741 c 0
 166.845890374 488.784022983 160.711067899 466.593532603 159.987081417 445.996370496 c 0
 160.045797004 445.66004333 160.912972493 440.830815878 163.344480371 434.649162407 c 0
 165.467798165 429.251024721 167.498892272 425.172596638 168.591779642 423.097077598 c 0
 171.243741116 419.520456877 181.778690727 405.505952538 186.921115104 401.550239061 c 0
 194.686213019 395.577114694 199.428920321 392.822095431 204.719070304 390.488276777 c 0
 211.274002686 387.596482872 220.44030357 385.004916381 236.747410311 380.928004106 c 0
 258.819480774 375.40998649 284.019702674 370.933990711 306.313000959 370.933990711 c 0
332 206 m 0
 351.86894 206 368 189.86894 368 170 c 0
 368 150.240969121 352.046910933 134.178578918 332.329382129 134.001478722 c 0
 321.760126188 133.906547084 310.474914033 130.176974287 299.236032283 127.197829509 c 0
 296.288112404 126.41641012 293.19230136 126 290 126 c 0
 270.13106 126 254 142.13106 254 162 c 0
 254 178.67663864 265.363982247 192.720021812 280.763967717 196.802170491 c 0
 295.220587724 200.634256721 308.653504202 205.791784654 331.670617871 205.998521278 c 0
 331.780296137 205.998521278 331.890090879 206 332 206 c 0
333.240378781 684.518973424 m 0
 372.027188379 684.518973424 407.390539384 673.770965819 435.340050163 660.572585729 c 0
 438.816900299 658.930739831 441.989318499 656.748437269 444.748632206 654.134350599 c 2
 482.748632206 618.134350599 l 2
 487.466482268 613.664808435 490.976668579 607.932994803 492.736004532 601.48209631 c 2
 504.736004532 557.48209631 l 2
 505.560062128 554.460551791 506.057684221 551.280743354 506.004767766 547.999923101 c 2
 504.995237085 485.409020912 l 2
 504.933246629 481.565612616 504.267689098 477.867779715 503.089297924 474.406255641 c 0
 493.470085212 446.1498183 476.240820922 403.334452136 445.48079671 366.013287603 c 0
 420.958244072 336.260052839 386.133287933 308.878869653 339.72229518 301.453133655 c 0
 328.525462233 299.661640384 317.340145131 298.933990711 306.313000959 298.933990711 c 0
 274.815348631 298.933990711 244.611250248 304.732330754 219.252589689 311.071995894 c 0
 197.614157234 316.481783926 179.168960657 321.600038452 162.109627005 331.53955332 c 1
 163.756295186 309.307787286 166.143693898 287.081821307 170.246304946 267.356835041 c 0
 170.583195165 265.737097056 170.811103226 264.07760783 170.922002494 262.386393996 c 0
 175.361670115 193.387801378 179.728084422 124.315955445 185.874526445 57.0241372285 c 0
 185.957619166 56.0270245799 186 55.0184225213 186 54 c 0
 186 34.13106 169.86894 18 150 18 c 0
 131.149482521 18 115.663480376 32.519780921 114.125473555 50.9758627715 c 0
 111.775537818 79.1750916144 108.930046838 107.3698537 107.077997506 135.613606004 c 2
 99.2387461289 255.162189511 l 1
 91.8383789033 291.999193247 89.771400672 330.376731837 88.0503667358 363.081178617 c 0
 87.4973900529 373.587735592 87.3404351899 391.323692595 87.3404351899 408.574374472 c 0
 87.3404351899 425.1065548 86.7917659586 436.748820887 88.0919581896 450.108359512 c 0
 89.619334526 486.05185678 100.252014052 517.566843835 100.730072272 519.04882458 c 0
 101.151635614 520.355670941 101.645938896 521.629973434 102.208201732 522.866951674 c 0
 113.867291964 548.516950184 130.886730868 574.721430488 151.924564507 598.716134056 c 0
 184.424357927 635.782782804 228.785739098 659.559113212 274.406255641 675.089297924 c 0
 294.129010743 681.80342732 314.058324013 684.518973424 333.240378781 684.518973424 c 0
EndSplineSet
EndChar

StartChar: H
Encoding: 72 72 21
Width: 724
Flags: HW
LayerCount: 2
Fore
SplineSet
69.9994521585 683.999997006 m 2
 69.9994521585 703.868937006 86.13106 720 106 720 c 0
 125.802072687 720 141.891382105 703.977332859 141.999452369 684.200474462 c 2
 142.889912161 521.246332592 l 1
 192.308926079 569.19380327 261.857837847 597.040480483 332.604651122 597.040480483 c 0
 341.805075933 597.040480483 350.686470852 596.813571074 360.349468666 596.813571074 c 0
 377.116002463 596.813571074 394.377309626 597.022606112 411.322300095 597.022607163 c 0
 480.608062125 597.022607163 527.188340244 553.630033342 566.636255915 522.356392387 c 1
 562.014230335 687.978975675 l 2
 562.014230335 688.318171171 562 688.658533582 562 689 c 0
 562 708.86894 578.13106 725 598 725 c 0
 617.527473582 725 633.444441122 709.418630457 633.985769665 690.021024325 c 2
 639.972747095 475.487666418 l 1
 645.237181623 377.218221892 l 2
 648.058112403 363.697784129 649.934339616 349.204537201 649.934339616 333.896675976 c 0
 649.934339616 327.268336663 649.565599223 320.50847957 648.740182786 313.656866298 c 0
 648.717549895 313.468995289 648.694947272 313.281586307 648.672373677 313.09463689 c 2
 648.947812955 307.953103697 l 2
 648.967052935 307.593957405 648.981018761 307.233420115 648.989634288 306.871567972 c 2
 654.928558776 57.4367394707 l 1
 660.509332316 23.9520982328 l 2
 660.832055612 22.0157584515 661 20.0273372145 661 18 c 0
 661 -1.86894 644.86894 -18 625 -18 c 0
 607.158397214 -18 592.330797502 -4.99287713675 589.490667684 12.0479017672 c 2
 583.490667684 48.0479017672 l 2
 583.214321474 49.7059790282 583.051465415 51.4022445171 583.010365712 53.1284320278 c 2
 579.985293922 180.1814472 l 1
 575.349976718 174.9347474 569.209872562 171.04803117 562.24349023 169.199807286 c 2
 422.958180762 132.246561917 l 2
 417.010603612 127.820235147 411.067920117 122.863212344 397.645723977 120.599365959 c 0
 373.468975408 115.425643316 353.175881294 113.994483717 333.232226046 113.994482963 c 0
 276.391757393 113.994482963 225.040974702 136.018581279 181.96059781 169.007668259 c 0
 168.677785712 179.179070536 156.159410405 190.427802303 144.631509307 202.534054892 c 1
 144.997058134 135.638619512 l 1
 147.56413729 48.3579282007 l 2
 149.76746199 43.698722683 151 38.4921628429 151 33 c 0
 151 13.13106 134.86894 -3 115 -3 c 2
 112 -3 l 2
 92.4909340723 -3 76.5855704776 12.5520077034 76.0158021702 31.9241301559 c 2
 73.0158021702 133.924130156 l 2
 73.0072448171 134.21508016 73.0021467221 134.50689187 73.000547631 134.799525538 c 2
 69.9994521585 683.999997006 l 2
360.349468666 524.813571074 m 0
 350.971581812 524.813571074 341.800542803 525.040480483 332.604651122 525.040480483 c 0
 231.957747374 525.040480483 144.081939014 451.990859572 144.081939014 355.361154091 c 0
 144.081939014 350.970994815 144.257465276 346.496877448 144.62027531 341.940388858 c 0
 154.997596229 301.483677486 185.541971621 256.938385093 225.677304126 226.204485 c 0
 259.140607726 200.57973627 296.387047295 185.994482963 333.232226046 185.994482963 c 0
 349.546204573 185.994482963 362.499411409 186.834583652 380.710225 190.622332647 c 0
 385.510394633 194.736130334 390.363039321 198.10396586 396.75650977 199.800192714 c 2
 531.693728801 235.599863069 l 1
 543.770372142 251.075917532 553.754513278 260.880594456 560.288016884 267.195439195 c 0
 565.232370727 271.974318757 567.06038517 274.021787426 567.660173567 274.876641655 c 0
 568.164706214 275.595731703 568.63727 276.213755232 569.690660291 279.313925496 c 0
 570.515217552 281.740630894 574.359517227 297.823597942 576.494851435 314.450494357 c 2
 573.722336746 366.204101892 l 2
 571.099695312 377.494496289 567.488036973 389.068156729 563.5771459 400.633715475 c 1
 554.591110288 410.919323992 547.193701915 425.827643998 541.870697922 437.275225352 c 0
 537.5328909 446.604055244 532.600875766 458.197279268 526.577714258 462.356831523 c 0
 521.568860435 465.815910146 516.923904826 469.90702919 512.267630841 473.633391323 c 0
 496.389787446 486.340245468 481.158558035 498.392168852 466.248832734 507.394498573 c 0
 447.526944202 518.698570928 430.09500637 525.022607163 411.322300095 525.022607163 c 0
 410.553362397 525.022607163 409.773293864 525 409 525 c 0
 392.914369472 525 376.470494467 524.813571074 360.349468666 524.813571074 c 0
327 351 m 0
 327 370.869140625 343.130859375 387 363 387 c 0
 382.869140625 387 399 370.869140625 399 351 c 0
 399 331.130859375 382.869140625 315 363 315 c 0
 343.130859375 315 327 331.130859375 327 351 c 0
EndSplineSet
EndChar

StartChar: Y
Encoding: 89 89 22
Width: 678
Flags: HW
LayerCount: 2
Fore
SplineSet
346.430664062 626.758789062 m 1
 344.693359375 628.55078125 l 1
 343.243164062 626.189453125 341.989257812 623.83984375 340.950195312 621.486328125 c 0
 335.198242188 608.458984375 327.235351562 596.754882812 318.5859375 585.247070312 c 0
 308.033203125 571.206054688 296.411132812 557.94140625 286.512695312 547.641601562 c 0
 255.2421875 512.1171875 224.103515625 476.459960938 193.265625 440.502929688 c 0
 192.684570312 439.829101562 192.079101562 439.177734375 191.451171875 438.548828125 c 2
 142.928710938 390.02734375 l 1
 257.51171875 382.9765625 l 1
 537.00390625 377.029296875 l 1
 550.4609375 378.051757812 l 1
 545.90234375 384.412109375 l 1
 507.063476562 427.62890625 477.799804688 474.3671875 438.930664062 515.18359375 c 0
 410.282226562 545.266601562 370.420898438 588.650390625 346.430664062 626.758789062 c 1
653 347 m 0
 653 328.059570312 638.340820312 312.515625 619.759765625 311.104492188 c 2
 540.759765625 305.104492188 l 2
 539.848632812 305.03515625 538.928710938 305 538 305 c 0
 537.739257812 305 537.479492188 305.002929688 537.220703125 305.0078125 c 2
 386.119140625 308.223632812 l 1
 390.979492188 163.225585938 l 2
 390.993164062 162.818359375 391 162.41015625 391 162 c 2
 391 39 l 2
 391 37.259765625 390.875976562 35.5478515625 390.63671875 33.8720703125 c 2
 387.63671875 12.8720703125 l 2
 385.14453125 -4.5712890625 370.127929688 -18 352 -18 c 0
 332.130859375 -18 316 -1.869140625 316 18 c 0
 316 19.740234375 316.124023438 21.4521484375 316.36328125 23.1279296875 c 2
 319 41.5859375 l 1
 319 161.38671875 l 1
 314.026367188 309.756835938 l 1
 255.220703125 311.0078125 l 2
 254.731445312 311.018554688 254.244140625 311.0390625 253.758789062 311.068359375 c 2
 58.7587890625 323.068359375 l 2
 39.9326171875 324.227539062 25 339.883789062 25 359 c 0
 25 368.934570312 29.033203125 377.934570312 35.548828125 384.451171875 c 2
 139.60546875 488.5078125 l 1
 170.470703125 524.489257812 201.635742188 560.169921875 232.9296875 595.72265625 c 0
 233.311523438 596.157226562 233.703125 596.583007812 234.10546875 596.999023438 c 0
 245.788085938 609.09765625 268.000976562 634.548828125 275.049804688 650.513671875 c 0
 286.494140625 676.432617188 304.255859375 694.157226562 317.548828125 707.451171875 c 0
 324.065429688 713.966796875 333.065429688 718 343 718 c 0
 353.134765625 718 362.296875 713.802734375 368.842773438 707.053710938 c 2
 400.842773438 674.053710938 l 2
 402.715820312 672.122070312 404.374023438 669.98046875 405.780273438 667.669921875 c 0
 423.108398438 639.181640625 463.107421875 594.1796875 491.069335938 564.81640625 c 0
 532.881835938 520.909179688 561.486328125 474.448242188 600.690429688 431.147460938 c 0
 601.61328125 430.12890625 602.478515625 429.057617188 603.280273438 427.9375 c 2
 646.280273438 367.9375 l 2
 650.509765625 362.037109375 653 354.806640625 653 347 c 0
EndSplineSet
EndChar

StartChar: Ccircumflex
Encoding: 264 264 23
Width: 578
Flags: HW
LayerCount: 2
Fore
SplineSet
261.80859375 338.14453125 m 0
 276.220703125 336.538085938 291.317382812 334.334960938 305.572265625 332.745117188 c 0
 322.5390625 330.853515625 341.696289062 328.819335938 352.009765625 332.506835938 c 0
 379.743164062 346.098632812 403.55859375 367.868164062 419.258789062 400.84765625 c 0
 431.294921875 426.1328125 447.453125 454.774414062 450.723632812 484.10546875 c 0
 452.124023438 496.666992188 452.306640625 511.84765625 450.572265625 525.421875 c 0
 449.241210938 535.844726562 446.540039062 544.512695312 444.306640625 548.60546875 c 0
 426.3984375 581.41015625 418.65625 594.51953125 395.293945312 604.526367188 c 0
 371.8515625 614.56640625 349.420898438 622.651367188 323.751953125 625.514648438 c 0
 270.038085938 631.50390625 241.450195312 613.364257812 209.797851562 593.357421875 c 0
 208.296875 592.408203125 200.223632812 586.885742188 193.298828125 581.640625 c 0
 188.413085938 577.940429688 183.444335938 573.6796875 181.943359375 572.30078125 c 2
 156.231445312 535.54296875 l 1
 142.740234375 501.5 l 1
 134.733398438 429.692382812 l 1
 146.188476562 400.453125 l 2
 151.362304688 390.697265625 152.875976562 378.98828125 152.63671875 368.037109375 c 1
 157.263671875 366.045898438 168.168945312 363.473632812 175.606445312 361.30859375 c 0
 201.3515625 353.815429688 234.6875 341.169921875 261.240234375 338.208007812 c 0
 261.4296875 338.1875 261.619140625 338.14453125 261.80859375 338.14453125 c 0
  Spiro
    261.808 338.145 o
    276.377 336.386 o
    291.108 334.493 o
    305.572 332.745 o
    322.843 331.025 o
    339.172 330.51 o
    352.01 332.507 o
    378.257 348.917 o
    401.029 371.518 o
    419.259 400.847 o
    432.026 427.125 o
    443.797 455.132 o
    450.723 484.106 o
    451.691 497.37 o
    451.693 511.483 o
    450.572 525.422 o
    448.854 535.146 o
    446.625 543.099 o
    444.306 548.605 o
    428.846 575.438 o
    414.388 592.885 o
    395.293 604.526 o
    372.054 613.785 o
    348.475 621.038 o
    323.751 625.514 o
    277.409 624.293 o
    241.44 611.901 o
    209.797 593.357 o
    206.397 591.067 o
    200.314 586.794 o
    193.299 581.641 o
    188.521 577.885 o
    184.465 574.51 o
    181.943 572.301 [
    156.231 535.543 v
    142.74 501.5 v
    134.733 429.693 v
    146.188 400.453 ]
    150.21 390.157 o
    152.222 379.129 o
    152.636 368.037 v
    158.987 365.891 o
    167.382 363.57 o
    175.606 361.308 o
    203.32 352.656 o
    232.988 343.84 o
    261.24 338.208 o
    261.429 338.187 o
    261.619 338.166 o
    0 0 z
  EndSpiro
253.828125 266.588867188 m 0
 253.638671875 266.588867188 253.450195312 266.630859375 253.260742188 266.65234375 c 0
 214.7578125 270.9453125 185.283203125 283.348632812 156.302734375 291.92578125 c 1
 156.296875 271.635742188 156.993164062 258.485351562 158.659179688 239.477539062 c 0
 159.68359375 227.780273438 160.692382812 213.73046875 161.07421875 201.150390625 c 0
 161.5 187.146484375 162.50390625 177.666992188 163.890625 173.810546875 c 0
 170.294921875 156.00390625 185.213867188 127.340820312 199.236328125 116.395507812 c 0
 216.426757812 102.978515625 245.158203125 92.4775390625 268.892578125 89.830078125 c 0
 285.8984375 87.93359375 306.66796875 86.072265625 317.515625 90.3232421875 c 0
 322.776367188 92.3837890625 328.598632812 93.2333984375 334.599609375 92.564453125 c 0
 354.345703125 90.36328125 368.58984375 72.54296875 366.388671875 52.796875 c 0
 364.85546875 39.05078125 355.75390625 27.970703125 343.704101562 23.2490234375 c 0
 319.852539062 13.9052734375 293.10546875 14.6826171875 263.982421875 17.9306640625 c 0
 262.931640625 18.0478515625 261.908203125 18.162109375 260.912109375 18.2734375 c 0
 225.014648438 22.2763671875 185.950195312 35.43359375 155.0078125 59.5830078125 c 0
 141.438476562 70.1748046875 131.075195312 83.2939453125 122.166015625 96.9765625 c 0
 111.010742188 114.10546875 102.2265625 132.49609375 96.1044921875 149.521484375 c 0
 87.44140625 173.61328125 89.796875 189.557617188 88.6572265625 210.596679688 c 0
 87.6591796875 229.010742188 85.302734375 246.484375 84.6689453125 266.158203125 c 0
 84.0517578125 285.333984375 83.919921875 312.868164062 85.5087890625 336.891601562 c 1
 78.6979805378 352.370089928 80.6373028379 363.728515625 80.640625 370.44921875 c 0
 80.451171875 370.881835938 80.26953125 371.3203125 80.095703125 371.760742188 c 2
 64.431640625 411.743164062 l 2
 62.3701171875 417.00390625 61.5205078125 422.827148438 62.1904296875 428.828125 c 2
 71.720703125 514.296875 l 2
 72.0849609375 517.55859375 72.875 520.669921875 74.0283203125 523.581054688 c 2
 90.8310546875 565.979492188 l 2
 91.8671875 568.595703125 93.197265625 571.049804688 94.7763671875 573.306640625 c 2
 123.201171875 613.940429688 l 2
 127.2109375 619.991210938 130.370117188 622.688476562 133.658203125 625.729492188 c 0
 145.524414062 636.705078125 165.037109375 650.19921875 175.221679688 656.676757812 c 0
 189.958007812 666.047851562 210.337890625 679.180664062 237.45703125 688.171875 c 0
 262.995117188 696.638671875 294.748046875 701.1953125 331.731445312 697.0703125 c 0
 368.002929688 693.025390625 397.9921875 681.711914062 423.647460938 670.72265625 c 0
 470.095703125 650.829101562 490.352539062 614.508789062 507.536132812 583.029296875 c 0
 523.010742188 554.681640625 526.604492188 514.904296875 522.279296875 476.125976562 c 0
 516.997070312 428.756835938 497.888671875 398.48046875 484.290039062 369.916015625 c 0
 461.40234375 321.8359375 424.622070312 287.913085938 383.615234375 267.818359375 c 0
 370.075195312 261.181640625 356.969726562 259.518554688 344.484375 258.905273438 c 0
 328.762695312 258.1328125 312.981445312 259.473632812 297.592773438 261.189453125 c 0
 282.952148438 262.822265625 267.892578125 265.020507812 253.828125 266.588867188 c 0
  Spiro
    253.828 266.589 o
    253.639 266.61 o
    253.449 266.631 o
    253.26 266.652 o
    217.484 273.198 o
    185.733 282.525 o
    156.303 291.926 v
    156.54 273.551 o
    157.307 256.998 o
    158.659 239.477 o
    159.655 227.151 o
    160.507 214.066 o
    161.074 201.151 o
    161.685 188.706 o
    162.64 179.493 o
    163.89 173.811 o
    172.773 153.465 o
    185.277 132.169 o
    199.236 116.396 o
    219.638 104.144 o
    244.13 94.905 o
    268.892 89.8297 o
    286.628 88.1713 o
    303.883 87.8854 o
    317.515 90.3231 o
    322.944 91.9676 o
    328.678 92.7389 o
    334.6 92.5645 o
    352.091 85.675 o
    363.521 71.3769 o
    366.388 52.7966 o
    362.509 40.0874 o
    354.59 29.9447 o
    343.703 23.249 o
    318.932 16.999 o
    292.266 15.7903 o
    263.982 17.9305 o
    262.942 18.0466 o
    261.916 18.1613 o
    260.912 18.2737 o
    224.414 25.3857 o
    188.204 39.0467 o
    155.008 59.5826 o
    142.454 70.9322 o
    131.614 83.5674 o
    122.165 96.9763 o
    111.821 114.411 o
    103.095 132.156 o
    96.1045 149.521 o
    90.5795 171.368 o
    89.1686 190.785 o
    88.657 210.597 o
    87.3219 228.796 o
    85.7612 247.12 o
    84.6688 266.159 o
    84.2591 287.657 o
    84.4479 312.163 o
    85.5087 336.891 v
    81.2248 350.959 o
    80.3917 362.209 o
    80.6403 370.449 o
    80.4536 370.883 o
    80.2718 371.321 o
    80.0958 371.761 [
    64.4313 411.743 ]
    62.7865 417.172 o
    62.015 422.907 o
    62.1898 428.828 [
    71.7208 514.297 ]
    72.2236 517.504 o
    72.9989 520.608 o
    74.0282 523.581 [
    90.8305 565.98 ]
    91.9618 568.538 o
    93.2831 570.988 o
    94.7765 573.307 [
    123.2 613.941 ]
    126.96 619.006 o
    130.38 622.669 o
    133.658 625.729 o
    147.429 637.18 o
    162.571 648.224 o
    175.222 656.677 o
    191.861 666.998 o
    212.566 678.104 o
    237.457 688.172 o
    265 695.153 o
    296.561 698.479 o
    331.731 697.07 o
    365.949 690.892 o
    396.504 681.529 o
    423.647 670.723 o
    462.19 646.17 o
    488.493 615.303 o
    507.536 583.03 o
    519.189 551.367 o
    523.819 514.739 o
    522.279 476.126 o
    513.117 433.923 o
    498.994 399.589 o
    484.29 369.916 o
    457.16 326.581 o
    422.818 292.505 o
    383.615 267.818 o
    370.24 262.698 o
    357.157 260.012 o
    344.484 258.905 o
    328.775 258.772 o
    313.08 259.664 o
    297.593 261.189 o
    282.879 262.964 o
    268.157 264.856 o
    0 0 z
  EndSpiro
94.96484375 718.700195312 m 0
 75.09590375 718.700195312 58.96484375 734.831255313 58.96484375 754.700195312 c 0
 58.96484375 766.152083207 64.3236454423 776.362232636 72.6682915107 782.957686286 c 0
 146.857598027 841.595539634 199.467752963 900.900383385 265.719691834 964.891994914 c 0
 272.197450555 971.148750968 281.013360509 975 290.721679688 975 c 0
 302.84706303 975 313.580357655 968.992352184 320.104834366 959.793785749 c 0
 343.667545486 926.5737785 368.550745467 896.190723981 397.318095866 871.17314849 c 0
 409.240488688 860.805796122 430.834584616 839.565731359 441.371048754 823.757890525 c 1
 456.851437899 810.72554418 471.862780726 797.224151517 488.015793149 784.864428451 c 0
 496.365743005 778.269210954 501.728515625 768.055739467 501.728515625 756.599609375 c 0
 501.728515625 736.730669375 485.597455625 720.599609375 465.728515625 720.599609375 c 0
 457.315705717 720.599609375 449.573024342 723.491591883 443.441238101 728.334790299 c 0
 438.286361852 732.406375232 432.955483765 736.3363674 427.960033902 740.594950426 c 2
 390.071362027 772.894755113 l 2
 386.515879025 775.925779738 383.556582938 779.635868282 381.394994013 783.82350312 c 0
 380.82197263 784.578174479 376.388421783 790.377230575 371.309716723 795.87786962 c 0
 363.602936972 804.224921301 353.719995368 813.687394331 350.109638509 816.82685151 c 0
 326.195508194 837.623815851 305.389504149 860.599245678 286.531245496 884.450697451 c 1
 231.148583876 829.343843675 184.875347834 779.883519179 117.261395989 726.442704339 c 0
 111.128143428 721.595095147 103.381895856 718.700195312 94.96484375 718.700195312 c 0
EndSplineSet
EndChar

StartChar: Gcircumflex
Encoding: 284 284 24
Width: 792
Flags: HW
LayerCount: 2
Fore
SplineSet
169.96484375 718.700195312 m 0
 150.095703125 718.700195312 133.96484375 734.831054688 133.96484375 754.700195312 c 0
 133.96484375 766.15234375 139.323242188 776.362304688 147.66796875 782.958007812 c 0
 221.857421875 841.595703125 274.467773438 900.900390625 340.719726562 964.891601562 c 0
 347.197265625 971.1484375 356.013671875 975 365.721679688 975 c 0
 377.846679688 975 388.580078125 968.9921875 395.104492188 959.793945312 c 0
 418.66796875 926.57421875 443.55078125 896.190429688 472.318359375 871.172851562 c 0
 484.240234375 860.805664062 505.834960938 839.565429688 516.37109375 823.7578125 c 1
 531.8515625 810.725585938 546.862304688 797.224609375 563.015625 784.864257812 c 0
 571.366210938 778.26953125 576.728515625 768.055664062 576.728515625 756.599609375 c 0
 576.728515625 736.73046875 560.59765625 720.599609375 540.728515625 720.599609375 c 0
 532.315429688 720.599609375 524.573242188 723.491210938 518.44140625 728.334960938 c 0
 513.286132812 732.40625 507.955078125 736.3359375 502.959960938 740.594726562 c 2
 465.071289062 772.89453125 l 2
 461.515625 775.92578125 458.556640625 779.635742188 456.39453125 783.823242188 c 0
 455.822265625 784.578125 451.388671875 790.376953125 446.309570312 795.877929688 c 0
 438.602539062 804.224609375 428.719726562 813.6875 425.109375 816.827148438 c 0
 401.1953125 837.624023438 380.389648438 860.599609375 361.53125 884.451171875 c 1
 306.1484375 829.34375 259.875 779.883789062 192.26171875 726.442382812 c 0
 186.127929688 721.594726562 178.381835938 718.700195312 169.96484375 718.700195312 c 0
421.5 119 m 0
 441.369140625 119 457.5 102.869140625 457.5 83 c 0
 457.5 69.1435546875 449.654296875 57.10546875 438.16796875 51.087890625 c 0
 413.178710938 37.9990234375 383.62109375 27.69921875 360.970703125 23.5810546875 c 0
 348.790039062 21.3662109375 334.520507812 18.5625 317.889648438 18.5625 c 0
 304.536132812 18.5625 289.7265625 20.595703125 274.891601562 26.6650390625 c 0
 240.205078125 40.85546875 213.279296875 51.9873046875 188.930664062 74.9130859375 c 0
 169.641601562 93.076171875 155.012695312 115.831054688 138.556640625 147.392578125 c 0
 124.666015625 174.03515625 116.913085938 199.512695312 114.489257812 207.177734375 c 0
 114.069335938 208.384765625 113.711914062 209.622070312 113.419921875 210.884765625 c 2
 98.419921875 275.884765625 l 2
 98.1298828125 277.141601562 97.9052734375 278.424804688 97.7509765625 279.729492188 c 2
 88.7509765625 355.729492188 l 2
 88.5849609375 357.129882812 88.5 358.5546875 88.5 360 c 0
 88.5 361.435546875 88.583984375 362.8515625 88.748046875 364.243164062 c 2
 94.72265625 415.02734375 l 2
 96.7890625 434.616210938 99.78125 456.912109375 108.01171875 484.346679688 c 0
 119.616210938 523.029296875 143.598632812 552.7421875 168.833007812 583.024414062 c 0
 189.0859375 607.328125 209.767578125 626.654296875 232.836914062 641.665039062 c 0
 261.732421875 660.46875 293.211914062 671.732421875 329.384765625 680.080078125 c 0
 350.126953125 684.866210938 369.515625 687.270507812 387.88671875 687.270507812 c 0
 446.403320312 687.270507812 486.759765625 662.12890625 515.208984375 630.844726562 c 0
 539.047851562 604.630859375 555.94921875 573.606445312 571.720703125 542.064453125 c 0
 573.135742188 539.234375 574.188476562 536.192382812 574.818359375 532.999023438 c 2
 589.818359375 456.999023438 l 2
 590.220703125 454.962890625 590.450195312 452.866210938 590.493164062 450.72265625 c 2
 593.142578125 316.450195312 l 1
 638.6796875 314.981445312 l 2
 659.263671875 314.317382812 676.849609375 307.787109375 688.51953125 294.01171875 c 0
 700.8515625 279.456054688 701.822265625 263.3515625 701.822265625 251.405273438 c 0
 701.822265625 243.733398438 701.208007812 236.038085938 700.310546875 227.290039062 c 0
 699.537109375 219.745117188 697.895507812 213.780273438 695.822265625 206.834960938 c 0
 693.264648438 198.267578125 689.888671875 188.747070312 685.890625 178.356445312 c 0
 670.58984375 138.58203125 646.005859375 84.236328125 624.53125 50.2939453125 c 0
 620.557617188 44.013671875 616.94921875 38.642578125 611.844726562 33.0859375 c 0
 609.525390625 30.5615234375 606.895507812 27.8232421875 602.205078125 24.71875 c 0
 598.603515625 22.3359375 592.924804688 18.7939453125 583.096679688 18.0927734375 c 0
 581.420898438 17.97265625 579.736328125 17.9111328125 578.045898438 17.9111328125 c 0
 554.901367188 17.9111328125 537.241210938 30.1416015625 526.67578125 41.349609375 c 0
 514.825195312 53.9208984375 510.458984375 63.6533203125 502.296875 74.955078125 c 0
 486.684570312 96.5712890625 476.991210938 112.415039062 463.32421875 133.37109375 c 0
 459.641601562 139.018554688 457.5 145.76171875 457.5 153 c 0
 457.5 172.869140625 473.630859375 189 493.5 189 c 0
 506.129882812 189 517.25 182.481445312 523.67578125 172.62890625 c 0
 536.747070312 152.5859375 546.701171875 136.432617188 560.703125 117.044921875 c 0
 564.85546875 111.295898438 567.625 106.6953125 571.15234375 101.483398438 c 1
 589.4296875 134.333984375 618.592773438 200.009765625 626.765625 227.263671875 c 1
 628.689453125 234.709960938 l 2
 629.015625 237.889648438 629.267578125 240.745117188 629.450195312 243.240234375 c 1
 570.65625 244.915039062 512.473632812 247.201171875 454.840820312 250.038085938 c 0
 435.741210938 250.90625 420.5 266.6875 420.5 286 c 0
 420.5 305.869140625 436.630859375 322 456.5 322 c 0
 457.055664062 322 457.609375 321.987304688 458.159179688 321.961914062 c 2
 521.076171875 319.102539062 l 1
 518.5703125 446.098632812 l 1
 505.125976562 514.21484375 l 1
 490.967773438 542.155273438 477.006835938 565.856445312 461.93359375 582.431640625 c 0
 450.9296875 594.532226562 439.702148438 602.89453125 426.489257812 608.305664062 c 0
 415.8828125 612.6484375 403.53515625 615.270507812 387.88671875 615.270507812 c 0
 375.959960938 615.270507812 361.943359375 613.688476562 345.615234375 609.919921875 c 0
 314.0234375 602.629882812 291.81640625 594.147460938 272.03125 581.2734375 c 0
 256.155273438 570.942382812 241.096679688 557.291015625 224.166992188 536.975585938 c 0
 199.401367188 507.2578125 183.383789062 484.970703125 176.98828125 463.653320312 c 0
 170.272460938 441.264648438 168.444335938 425.392578125 166.251953125 406.756835938 c 2
 160.752929688 360.013671875 l 1
 169.018554688 290.213867188 l 1
 183.217773438 228.68359375 l 2
 185.24609375 222.233398438 192.220703125 200.21484375 202.443359375 180.607421875 c 0
 217.490234375 151.749023438 228.147460938 136.862304688 238.266601562 127.334960938 c 0
 250.677734375 115.6484375 266.956054688 107.715820312 302.108398438 93.3349609375 c 0
 306.866210938 91.388671875 311.650390625 90.5625 317.889648438 90.5625 c 0
 325.665039062 90.5625 335.802734375 92.1962890625 348.029296875 94.4189453125 c 0
 360.009765625 96.59765625 387.821289062 106.000976562 404.83203125 114.912109375 c 0
 409.817382812 117.522460938 415.487304688 119 421.5 119 c 0
295.5 378 m 2
 295.5 397.869140625 311.630859375 414 331.5 414 c 0
 351.369140625 414 367.5 397.869140625 367.5 378 c 2
 367.5 363 l 2
 367.5 343.130859375 351.369140625 327 331.5 327 c 0
 311.630859375 327 295.5 343.130859375 295.5 363 c 2
 295.5 378 l 2
EndSplineSet
EndChar

StartChar: Hcircumflex
Encoding: 292 292 25
Width: 724
Flags: HW
LayerCount: 2
Fore
SplineSet
163.96484375 718.700195312 m 0
 144.095703125 718.700195312 127.96484375 734.831054688 127.96484375 754.700195312 c 0
 127.96484375 766.15234375 133.323242188 776.362304688 141.66796875 782.958007812 c 0
 215.857421875 841.595703125 268.467773438 900.900390625 334.719726562 964.891601562 c 0
 341.197265625 971.1484375 350.013671875 975 359.721679688 975 c 0
 371.846679688 975 382.580078125 968.9921875 389.104492188 959.793945312 c 0
 412.66796875 926.57421875 437.55078125 896.190429688 466.318359375 871.172851562 c 0
 478.240234375 860.805664062 499.834960938 839.565429688 510.37109375 823.7578125 c 1
 525.8515625 810.725585938 540.862304688 797.224609375 557.015625 784.864257812 c 0
 565.366210938 778.26953125 570.728515625 768.055664062 570.728515625 756.599609375 c 0
 570.728515625 736.73046875 554.59765625 720.599609375 534.728515625 720.599609375 c 0
 526.315429688 720.599609375 518.573242188 723.491210938 512.44140625 728.334960938 c 0
 507.286132812 732.40625 501.955078125 736.3359375 496.959960938 740.594726562 c 2
 459.071289062 772.89453125 l 2
 455.515625 775.92578125 452.556640625 779.635742188 450.39453125 783.823242188 c 0
 449.822265625 784.578125 445.388671875 790.376953125 440.309570312 795.877929688 c 0
 432.602539062 804.224609375 422.719726562 813.6875 419.109375 816.827148438 c 0
 395.1953125 837.624023438 374.389648438 860.599609375 355.53125 884.451171875 c 1
 300.1484375 829.34375 253.875 779.883789062 186.26171875 726.442382812 c 0
 180.127929688 721.594726562 172.381835938 718.700195312 163.96484375 718.700195312 c 0
69.9994521585 683.999997006 m 2
 69.9994521585 703.868937006 86.13106 720 106 720 c 0
 125.802072687 720 141.891382105 703.977332859 141.999452369 684.200474462 c 2
 142.889912161 521.246332592 l 1
 192.308926079 569.19380327 261.857837847 597.040480483 332.604651122 597.040480483 c 0
 341.805075933 597.040480483 350.686470852 596.813571074 360.349468666 596.813571074 c 0
 377.116002463 596.813571074 394.377309626 597.022606112 411.322300095 597.022607163 c 0
 480.608062125 597.022607163 527.188340244 553.630033342 566.636255915 522.356392387 c 1
 562.014230335 687.978975675 l 2
 562.014230335 688.318171171 562 688.658533582 562 689 c 0
 562 708.86894 578.13106 725 598 725 c 0
 617.527473582 725 633.444441122 709.418630457 633.985769665 690.021024325 c 2
 639.972747095 475.487666418 l 1
 645.237181623 377.218221892 l 2
 648.058112403 363.697784129 649.934339616 349.204537201 649.934339616 333.896675976 c 0
 649.934339616 327.268336663 649.565599223 320.50847957 648.740182786 313.656866298 c 0
 648.717549895 313.468995289 648.694947272 313.281586307 648.672373677 313.09463689 c 2
 648.947812955 307.953103697 l 2
 648.967052935 307.593957405 648.981018761 307.233420115 648.989634288 306.871567972 c 2
 654.928558776 57.4367394707 l 1
 660.509332316 23.9520982328 l 2
 660.832055612 22.0157584515 661 20.0273372145 661 18 c 0
 661 -1.86894 644.86894 -18 625 -18 c 0
 607.158397214 -18 592.330797502 -4.99287713675 589.490667684 12.0479017672 c 2
 583.490667684 48.0479017672 l 2
 583.214321474 49.7059790282 583.051465415 51.4022445171 583.010365712 53.1284320278 c 2
 579.985293922 180.1814472 l 1
 575.349976718 174.9347474 569.209872562 171.04803117 562.24349023 169.199807286 c 2
 422.958180762 132.246561917 l 2
 417.010603612 127.820235147 411.067920117 122.863212344 397.645723977 120.599365959 c 0
 373.468975408 115.425643316 353.175881294 113.994483717 333.232226046 113.994482963 c 0
 276.391757393 113.994482963 225.040974702 136.018581279 181.96059781 169.007668259 c 0
 168.677785712 179.179070536 156.159410405 190.427802303 144.631509307 202.534054892 c 1
 144.997058134 135.638619512 l 1
 147.56413729 48.3579282007 l 2
 149.76746199 43.698722683 151 38.4921628429 151 33 c 0
 151 13.13106 134.86894 -3 115 -3 c 2
 112 -3 l 2
 92.4909340723 -3 76.5855704776 12.5520077034 76.0158021702 31.9241301559 c 2
 73.0158021702 133.924130156 l 2
 73.0072448171 134.21508016 73.0021467221 134.50689187 73.000547631 134.799525538 c 2
 69.9994521585 683.999997006 l 2
360.349468666 524.813571074 m 0
 350.971581812 524.813571074 341.800542803 525.040480483 332.604651122 525.040480483 c 0
 231.957747374 525.040480483 144.081939014 451.990859572 144.081939014 355.361154091 c 0
 144.081939014 350.970994815 144.257465276 346.496877448 144.62027531 341.940388858 c 0
 154.997596229 301.483677486 185.541971621 256.938385093 225.677304126 226.204485 c 0
 259.140607726 200.57973627 296.387047295 185.994482963 333.232226046 185.994482963 c 0
 349.546204573 185.994482963 362.499411409 186.834583652 380.710225 190.622332647 c 0
 385.510394633 194.736130334 390.363039321 198.10396586 396.75650977 199.800192714 c 2
 531.693728801 235.599863069 l 1
 543.770372142 251.075917532 553.754513278 260.880594456 560.288016884 267.195439195 c 0
 565.232370727 271.974318757 567.06038517 274.021787426 567.660173567 274.876641655 c 0
 568.164706214 275.595731703 568.63727 276.213755232 569.690660291 279.313925496 c 0
 570.515217552 281.740630894 574.359517227 297.823597942 576.494851435 314.450494357 c 2
 573.722336746 366.204101892 l 2
 571.099695312 377.494496289 567.488036973 389.068156729 563.5771459 400.633715475 c 1
 554.591110288 410.919323992 547.193701915 425.827643998 541.870697922 437.275225352 c 0
 537.5328909 446.604055244 532.600875766 458.197279268 526.577714258 462.356831523 c 0
 521.568860435 465.815910146 516.923904826 469.90702919 512.267630841 473.633391323 c 0
 496.389787446 486.340245468 481.158558035 498.392168852 466.248832734 507.394498573 c 0
 447.526944202 518.698570928 430.09500637 525.022607163 411.322300095 525.022607163 c 0
 410.553362397 525.022607163 409.773293864 525 409 525 c 0
 392.914369472 525 376.470494467 524.813571074 360.349468666 524.813571074 c 0
327 351 m 0
 327 370.869140625 343.130859375 387 363 387 c 0
 382.869140625 387 399 370.869140625 399 351 c 0
 399 331.130859375 382.869140625 315 363 315 c 0
 343.130859375 315 327 331.130859375 327 351 c 0
EndSplineSet
EndChar

StartChar: Jcircumflex
Encoding: 308 308 26
Width: 624
Flags: HW
LayerCount: 2
Fore
SplineSet
119.96484375 718.700195312 m 0
 100.095703125 718.700195312 83.96484375 734.831054688 83.96484375 754.700195312 c 0
 83.96484375 766.15234375 89.3232421875 776.362304688 97.66796875 782.958007812 c 0
 171.857421875 841.595703125 224.467773438 900.900390625 290.719726562 964.891601562 c 0
 297.197265625 971.1484375 306.013671875 975 315.721679688 975 c 0
 327.846679688 975 338.580078125 968.9921875 345.104492188 959.793945312 c 0
 368.66796875 926.57421875 393.55078125 896.190429688 422.318359375 871.172851562 c 0
 434.240234375 860.805664062 455.834960938 839.565429688 466.37109375 823.7578125 c 1
 481.8515625 810.725585938 496.862304688 797.224609375 513.015625 784.864257812 c 0
 521.366210938 778.26953125 526.728515625 768.055664062 526.728515625 756.599609375 c 0
 526.728515625 736.73046875 510.59765625 720.599609375 490.728515625 720.599609375 c 0
 482.315429688 720.599609375 474.573242188 723.491210938 468.44140625 728.334960938 c 0
 463.286132812 732.40625 457.955078125 736.3359375 452.959960938 740.594726562 c 2
 415.071289062 772.89453125 l 2
 411.515625 775.92578125 408.556640625 779.635742188 406.39453125 783.823242188 c 0
 405.822265625 784.578125 401.388671875 790.376953125 396.309570312 795.877929688 c 0
 388.602539062 804.224609375 378.719726562 813.6875 375.109375 816.827148438 c 0
 351.1953125 837.624023438 330.389648438 860.599609375 311.53125 884.451171875 c 1
 256.1484375 829.34375 209.875 779.883789062 142.26171875 726.442382812 c 0
 136.127929688 721.594726562 128.381835938 718.700195312 119.96484375 718.700195312 c 0
162.947265625 575.16796875 m 1
 166.809570312 569.6484375 170.685546875 564.525390625 174.548828125 559.2578125 c 0
 181.862304688 549.284179688 237.153320312 482.458007812 248.30859375 470.016601562 c 0
 278.21875 436.658203125 288.615234375 429.911132812 316.838867188 403.643554688 c 1
 335.452148438 419.861328125 357.615234375 445.315429688 374.490234375 464.561523438 c 0
 387.6171875 479.532226562 401.203125 495.040039062 417.624023438 512.018554688 c 0
 430.682617188 525.521484375 438.584960938 541.501953125 452.858398438 557.202148438 c 0
 455.560546875 560.173828125 464.16796875 574.078125 469.477539062 583 c 1
 413.821289062 583 l 1
 300.567382812 581.012695312 l 1
 254.662109375 579.096679688 208.540039062 577.397460938 162.947265625 575.16796875 c 1
77.5 599 m 0
 77.5 605.255859375 79.1103515625 610.645507812 80.19921875 616.087890625 c 0
 83.3876953125 632.030273438 97.119140625 644.184570312 113.802734375 644.9609375 c 0
 174.911132812 647.923828125 236.377929688 650.528320312 298.008789062 652.969726562 c 0
 298.291015625 652.981445312 298.57421875 652.989257812 298.857421875 652.994140625 c 2
 412.857421875 654.994140625 l 2
 413.071289062 654.998046875 413.28515625 655 413.5 655 c 2
 505.5 655 l 2
 509.639648438 655 513.615234375 654.245117188 517.275390625 653.030273438 c 0
 518.950195312 652.473632812 534.549804688 648.576171875 544.11328125 632.9921875 c 0
 551.075195312 621.6484375 551.5 611.397460938 551.5 603 c 0
 551.5 593.328125 549.682617188 587.24609375 547.853515625 581.000976562 c 0
 545.192382812 571.916992188 542.208007812 563.254882812 537.591796875 556.2421875 c 0
 526.92578125 540.040039062 520.944335938 525.080078125 506.141601562 508.797851562 c 0
 501.866210938 504.094726562 497.791992188 498.446289062 492.724609375 491.265625 c 0
 486.891601562 482.998046875 479.701171875 472.657226562 469.375976562 461.981445312 c 0
 441.874023438 433.544921875 421.876953125 408.34375 394.778320312 379.404296875 c 0
 381.848632812 365.596679688 370.51953125 354.556640625 358.0703125 344.224609375 c 1
 367.353515625 241.268554688 l 2
 367.450195312 240.19140625 367.5 239.1015625 367.5 238 c 0
 367.5 237.737304688 367.497070312 237.474609375 367.491210938 237.212890625 c 2
 365.491210938 144.212890625 l 2
 365.477539062 143.573242188 365.447265625 142.938476562 365.400390625 142.307617188 c 2
 359.4609375 62.1171875 l 2
 359.021484375 51.6669921875 354.977539062 43.6015625 350.793945312 37.8828125 c 0
 342.103515625 26.0068359375 330.755859375 19.7080078125 317.452148438 17.490234375 c 0
 316.094726562 17.2646484375 314.712890625 17.1142578125 313.30859375 17.044921875 c 2
 192.30859375 11.044921875 l 2
 191.709960938 11.0146484375 191.106445312 11 190.5 11 c 0
 170.630859375 11 154.5 27.130859375 154.5 47 c 0
 154.5 66.2626953125 169.661132812 82.01171875 188.69140625 82.955078125 c 2
 289.172851562 87.9375 l 1
 293.529296875 146.7421875 l 1
 295.46484375 236.75 l 1
 286.779296875 333.083007812 l 2
 285.993164062 333.723632812 285.235351562 334.396484375 284.506835938 335.099609375 c 0
 245.166015625 373.072265625 233.88671875 378.267578125 194.69140625 421.983398438 c 0
 177.994140625 440.60546875 126.603515625 503.086914062 113.422851562 520.8359375 c 0
 107.020507812 529.45703125 97.80078125 541.629882812 90.056640625 555.99609375 c 0
 83.958984375 567.307617188 77.5 580.845703125 77.5 599 c 0
EndSplineSet
EndChar

StartChar: Scircumflex
Encoding: 348 348 27
Width: 712
Flags: HW
LayerCount: 2
Fore
SplineSet
164.96484375 718.700195312 m 0
 145.095703125 718.700195312 128.96484375 734.831054688 128.96484375 754.700195312 c 0
 128.96484375 766.15234375 134.323242188 776.362304688 142.66796875 782.958007812 c 0
 216.857421875 841.595703125 269.467773438 900.900390625 335.719726562 964.891601562 c 0
 342.197265625 971.1484375 351.013671875 975 360.721679688 975 c 0
 372.846679688 975 383.580078125 968.9921875 390.104492188 959.793945312 c 0
 413.66796875 926.57421875 438.55078125 896.190429688 467.318359375 871.172851562 c 0
 479.240234375 860.805664062 500.834960938 839.565429688 511.37109375 823.7578125 c 1
 526.8515625 810.725585938 541.862304688 797.224609375 558.015625 784.864257812 c 0
 566.366210938 778.26953125 571.728515625 768.055664062 571.728515625 756.599609375 c 0
 571.728515625 736.73046875 555.59765625 720.599609375 535.728515625 720.599609375 c 0
 527.315429688 720.599609375 519.573242188 723.491210938 513.44140625 728.334960938 c 0
 508.286132812 732.40625 502.955078125 736.3359375 497.959960938 740.594726562 c 2
 460.071289062 772.89453125 l 2
 456.515625 775.92578125 453.556640625 779.635742188 451.39453125 783.823242188 c 0
 450.822265625 784.578125 446.388671875 790.376953125 441.309570312 795.877929688 c 0
 433.602539062 804.224609375 423.719726562 813.6875 420.109375 816.827148438 c 0
 396.1953125 837.624023438 375.389648438 860.599609375 356.53125 884.451171875 c 1
 301.1484375 829.34375 254.875 779.883789062 187.26171875 726.442382812 c 0
 181.127929688 721.594726562 173.381835938 718.700195312 164.96484375 718.700195312 c 0
378 368 m 0
 378 382.624023438 375.786132812 400.646484375 375.786132812 415.756835938 c 0
 375.786132812 418.536132812 375.854492188 421.360351562 376.1796875 424.618164062 c 0
 376.827148438 431.096679688 377 449.047851562 377 460 c 0
 377 462.110351562 376.966796875 464.717773438 376.966796875 467.693359375 c 0
 376.966796875 476.6484375 377.26953125 488.94140625 379.69921875 501.087890625 c 0
 384.73828125 526.287109375 404.549804688 552.59765625 415.223632812 566.322265625 c 0
 427.298828125 585.815429688 444.147460938 600.962890625 461.84375 614.557617188 c 0
 485.612304688 632.818359375 511.534179688 648.103515625 534.516601562 661.892578125 c 0
 536.32421875 662.977539062 538.234375 663.907226562 540.229492188 664.665039062 c 2
 590.229492188 683.665039062 l 2
 594.19921875 685.173828125 598.50390625 686 603 686 c 0
 622.869140625 686 639 669.869140625 639 650 c 0
 639 634.626953125 629.34375 621.4921875 615.770507812 616.334960938 c 2
 568.745117188 598.46484375 l 1
 546.944335938 585.38671875 523.747070312 571.333007812 505.651367188 557.430664062 c 0
 491.010742188 546.182617188 480.407226562 535.119140625 475.977539062 527.659179688 c 0
 471.708984375 520.469726562 466.874023438 516.626953125 457.6796875 501.6953125 c 0
 453.255859375 494.512695312 450.313476562 486.973632812 450.30078125 486.912109375 c 0
 449.538085938 483.094726562 449 467.536132812 449 460 c 0
 449 457.658203125 449.006835938 455.068359375 449.006835938 452.31640625 c 0
 449.006835938 441.499023438 448.89453125 428.161132812 447.82421875 417.416992188 c 0
 447.811523438 417.295898438 447.786132812 416.67578125 447.786132812 415.756835938 c 0
 447.786132812 401.965820312 450 384.25 450 368 c 0
 450 351.203125 456 301.536132812 456 282 c 0
 456 240.900390625 454.758789062 212.120117188 439.848632812 185.7109375 c 0
 427.815429688 164.397460938 410.017578125 151.77734375 391.58203125 139.793945312 c 0
 369.5390625 125.465820312 319.447265625 93.685546875 298.483398438 81.107421875 c 0
 277.995117188 68.814453125 257.848632812 64.8896484375 241.795898438 61.3037109375 c 0
 224.6015625 57.4638671875 211.611328125 54.1201171875 201.340820312 48.0224609375 c 0
 190.982421875 41.8720703125 178.286132812 34.9892578125 168.483398438 29.107421875 c 0
 166.99609375 28.21484375 165.438476562 27.4267578125 163.822265625 26.7529296875 c 2
 139.822265625 16.7529296875 l 2
 135.565429688 14.9794921875 130.896484375 14 126 14 c 0
 106.130859375 14 90 30.130859375 90 50 c 0
 90 64.97265625 99.16015625 77.8232421875 112.177734375 83.2470703125 c 2
 133.822265625 92.2646484375 l 1
 143.620117188 98.056640625 155.228515625 104.377929688 164.659179688 109.977539062 c 0
 187.138671875 123.325195312 209.173828125 127.8046875 226.055664062 131.575195312 c 0
 242.518554688 135.251953125 254.022460938 138.396484375 261.516601562 142.892578125 c 0
 280.552734375 154.314453125 331.385742188 186.53515625 352.41796875 200.206054688 c 0
 373.977539062 214.219726562 376.381835938 217.698242188 379.138671875 225.626953125 c 0
 381.823242188 233.348632812 384 250.502929688 384 282 c 0
 384 284.606445312 382.8984375 299.19140625 381.594726562 314.004882812 c 0
 379.938476562 332.809570312 378 353.17578125 378 368 c 0
EndSplineSet
EndChar

StartChar: Ubreve
Encoding: 364 364 28
Width: 768
Flags: HW
LayerCount: 2
Fore
SplineSet
409.5 93 m 0
 419.33203125 93 432.7890625 96.865234375 445.418945312 103.69140625 c 0
 464.926757812 114.236328125 477.7734375 122.671875 487.036132812 131.201171875 c 0
 494.462890625 138.040039062 500.182617188 145.168945312 506.15625 155.709960938 c 0
 514.56640625 170.55078125 523.896484375 191.255859375 530.052734375 211.483398438 c 0
 536.334960938 232.125 543.443359375 302.8046875 541.497070312 328.671875 c 2
 534.767578125 418.06640625 l 1
 530.004882812 441.880859375 l 1
 400.27734375 441.004882812 l 1
 289.528320312 437.048828125 l 1
 283.54296875 365.977539062 l 1
 286.486328125 261.016601562 l 2
 286.826171875 248.75390625 289.383789062 232.666015625 292.913085938 217.680664062 c 0
 297.298828125 199.052734375 303.40234375 181.37109375 306.415039062 174.592773438 c 0
 316.21484375 152.541992188 323.458984375 140.30078125 332.116210938 130.749023438 c 0
 339.09375 123.049804688 347.973632812 115.8984375 362.983398438 106.892578125 c 0
 373.401367188 100.641601562 379.600585938 97.546875 386.415039062 95.619140625 c 0
 391.916015625 94.0634765625 398.638671875 93 409.5 93 c 0
87.5 420 m 0
 67.630859375 420 51.5 436.130859375 51.5 456 c 0
 51.5 474.7578125 65.8779296875 490.184570312 84.205078125 491.850585938 c 0
 132.88671875 495.849609375 180.296875 501.120117188 227.3359375 506.76171875 c 0
 228.278320312 506.870117188 229.231445312 506.942382812 230.194335938 506.9765625 c 2
 398.194335938 512.9765625 l 2
 398.545898438 512.989257812 398.8984375 512.997070312 399.251953125 512.999023438 c 2
 545.55859375 513.987304688 l 1
 619.90234375 521.421875 l 1
 643.122070312 529.162109375 l 2
 646.698242188 530.354492188 650.524414062 531 654.5 531 c 0
 674.369140625 531 690.5 514.869140625 690.5 495 c 0
 690.5 479.106445312 680.178710938 465.604492188 665.877929688 460.837890625 c 2
 638.877929688 451.837890625 l 2
 636.400390625 451.01171875 633.802734375 450.448242188 631.119140625 450.1796875 c 2
 602.358398438 447.303710938 l 1
 603.77734375 440.208984375 605.831054688 433.25390625 606.397460938 425.735351562 c 2
 613.397460938 332.735351562 l 2
 613.465820312 331.83203125 613.5 330.919921875 613.5 330 c 0
 613.5 308.426757812 611.580078125 277.44921875 608.60546875 248.961914062 c 0
 606.202148438 225.936523438 603.685546875 206.0859375 598.947265625 190.516601562 c 0
 590.985351562 164.35546875 579.922851562 139.842773438 568.84375 120.290039062 c 0
 559.706054688 104.165039062 548.734375 90.158203125 535.782226562 78.2314453125 c 0
 519.572265625 63.3037109375 501.18359375 51.9853515625 479.581054688 40.30859375 c 0
 459.475585938 29.4404296875 435.775390625 21 409.5 21 c 0
 393.649414062 21 379.625976562 22.701171875 366.809570312 26.3251953125 c 0
 350.7265625 30.873046875 337.8203125 38.025390625 326.016601562 45.107421875 c 0
 307.36328125 56.2998046875 291.809570312 68.0263671875 278.758789062 82.42578125 c 0
 262.380859375 100.497070312 251.47265625 120.909179688 240.584960938 145.407226562 c 0
 229.1640625 171.104492188 215.60546875 219.705078125 214.513671875 258.983398438 c 2
 211.514648438 365.974609375 l 2
 211.504882812 366.315429688 211.5 366.657226562 211.5 367 c 0
 211.5 368.029296875 211.54296875 369.047851562 211.627929688 370.055664062 c 2
 216.935546875 433.078125 l 1
 196.905273438 430.766601562 176.887695312 427.975585938 156.794921875 426.149414062 c 2
 90.794921875 420.149414062 l 2
 89.7099609375 420.05078125 88.6103515625 420 87.5 420 c 0
137 846 m 0
 137 865.869140625 153.130859375 882 173 882 c 0
 183.936523438 882 193.741210938 877.112304688 200.345703125 869.404296875 c 0
 242.1640625 820.59765625 286.805664062 764.879882812 328.27734375 720.596679688 c 0
 334.526367188 713.923828125 339.75390625 706.62890625 346.596679688 697.561523438 c 0
 353.090820312 688.956054688 360.348632812 679.373046875 367.077148438 671.202148438 c 1
 378.965820312 683.736328125 390.612304688 694.715820312 402.766601562 706.666015625 c 0
 435.466796875 738.8203125 469.44921875 776.734375 503.735351562 806.853515625 c 1
 540.598632812 854.11328125 l 2
 541.17578125 854.852539062 541.780273438 855.568359375 542.411132812 856.259765625 c 2
 563.411132812 879.259765625 l 2
 569.99609375 886.47265625 579.473632812 891 590 891 c 0
 609.869140625 891 626 874.869140625 626 855 c 0
 626 845.657226562 622.43359375 837.141601562 616.588867188 830.740234375 c 2
 596.537109375 808.778320312 l 1
 558.401367188 759.88671875 l 2
 556.951171875 758.02734375 555.323242188 756.314453125 553.541992188 754.7734375 c 0
 522.510742188 727.912109375 484.947265625 686.516601562 453.233398438 655.333984375 c 0
 433.420898438 635.852539062 416.455078125 620.213867188 399.131835938 598.545898438 c 0
 392.533203125 590.291015625 382.379882812 585 371 585 c 0
 358.110351562 585 349.219726562 589.993164062 342.229492188 594.852539062 c 0
 334.701171875 600.086914062 329.025390625 605.751953125 323.3671875 611.819335938 c 0
 310.798828125 625.295898438 298.754882812 641.444335938 289.090820312 654.250976562 c 0
 282.559570312 662.905273438 276.477539062 670.59765625 275.72265625 671.403320312 c 0
 231.830078125 718.271484375 188.509765625 772.579101562 145.654296875 822.595703125 c 0
 140.259765625 828.891601562 137 837.068359375 137 846 c 0
EndSplineSet
EndChar
